<svg width="24" height="26" viewBox="0 0 24 26" fill="none" xmlns="http://www.w3.org/2000/svg">
<g clip-path="url(#clip0_468_2928)">
<path d="M20.7381 24.375H3.28168C1.9675 24.375 0.901268 23.2832 0.901268 21.9375V4.0625C0.901268 2.7168 1.9675 1.625 3.28168 1.625H20.7381C22.0522 1.625 23.1185 2.7168 23.1185 4.0625V21.9375C23.1185 23.2832 22.0522 24.375 20.7381 24.375ZM12.7091 9.03398L5.97949 15.925L5.66706 18.8246C5.62738 19.2105 5.94477 19.5406 6.32663 19.5L9.15833 19.1801L15.888 12.2891C16.002 12.1723 16.002 11.9793 15.888 11.8574L13.1356 9.03906C13.0116 8.91719 12.8232 8.91719 12.7091 9.03398ZM18.0105 8.38398L16.5178 6.85547C16.0516 6.37813 15.2978 6.37813 14.8366 6.85547L13.691 8.02852C13.577 8.14531 13.577 8.33828 13.691 8.46016L16.4434 11.2785C16.5575 11.3953 16.7459 11.3953 16.8649 11.2785L18.0105 10.1055C18.4717 9.6332 18.4717 8.86133 18.0105 8.38398Z" fill="white"/>
</g>
<defs>
<clipPath id="clip0_468_2928">
<rect width="22.2172" height="26" fill="white" transform="translate(0.901268)"/>
</clipPath>
</defs>
</svg>
