<svg width="20" height="20" viewBox="0 0 20 20" fill="none" xmlns="http://www.w3.org/2000/svg">
<path d="M13.3333 3.3335H15C15.442 3.3335 15.8659 3.50909 16.1785 3.82165C16.4911 4.13421 16.6666 4.55814 16.6666 5.00016V16.6668C16.6666 17.1089 16.4911 17.5328 16.1785 17.8453C15.8659 18.1579 15.442 18.3335 15 18.3335H4.99998C4.55795 18.3335 4.13403 18.1579 3.82147 17.8453C3.50891 17.5328 3.33331 17.1089 3.33331 16.6668V5.00016C3.33331 4.55814 3.50891 4.13421 3.82147 3.82165C4.13403 3.50909 4.55795 3.3335 4.99998 3.3335H6.66665" stroke="#0FB36C" stroke-width="1.8" stroke-linecap="round" stroke-linejoin="round"/>
<path d="M12.5 1.6665H7.50002C7.03978 1.6665 6.66669 2.0396 6.66669 2.49984V4.1665C6.66669 4.62674 7.03978 4.99984 7.50002 4.99984H12.5C12.9603 4.99984 13.3334 4.62674 13.3334 4.1665V2.49984C13.3334 2.0396 12.9603 1.6665 12.5 1.6665Z" stroke="#0FB36C" stroke-width="1.8" stroke-linecap="round" stroke-linejoin="round"/>
</svg>
