<svg width="20" height="20" viewBox="0 0 20 20" fill="none" xmlns="http://www.w3.org/2000/svg">
<g clip-path="url(#clip0_468_427)">
<path d="M10 13C11.6569 13 13 11.6569 13 10C13 8.34315 11.6569 7 10 7C8.34315 7 7 8.34315 7 10C7 11.6569 8.34315 13 10 13Z" stroke="#0FB36C" stroke-width="1.8" stroke-linecap="round" stroke-linejoin="round"/>
<path d="M15.422 6.30469C15.6101 6.57396 15.7748 6.85886 15.9142 7.15625L17.9376 8.28125C18.1903 9.41287 18.193 10.586 17.9455 11.7187L15.9142 12.8437C15.7748 13.1411 15.6101 13.426 15.422 13.6953L15.4611 16.0156C14.6035 16.7971 13.5886 17.3858 12.4845 17.7422L10.4923 16.5469C10.1646 16.5703 9.83566 16.5703 9.50795 16.5469L7.52358 17.7344C6.416 17.3845 5.39771 16.798 4.5392 16.0156L4.57826 13.7031C4.39175 13.4301 4.22718 13.1428 4.08607 12.8437L2.06264 11.7187C1.80998 10.5871 1.80731 9.41401 2.05482 8.28125L4.08607 7.15625C4.22551 6.85886 4.39018 6.57396 4.57826 6.30469L4.5392 3.98437C5.39674 3.20294 6.41168 2.61422 7.51576 2.25781L9.50795 3.45313C9.83566 3.42968 10.1646 3.42968 10.4923 3.45313L12.4767 2.26563C13.5843 2.61554 14.6026 3.20199 15.4611 3.98437L15.422 6.30469Z" stroke="#0FB36C" stroke-width="1.8" stroke-linecap="round" stroke-linejoin="round"/>
</g>
<defs>
<clipPath id="clip0_468_427">
<rect width="20" height="20" fill="white"/>
</clipPath>
</defs>
</svg>
