<svg width="124" height="124" viewBox="0 0 124 124" fill="none" xmlns="http://www.w3.org/2000/svg">
<circle r="2" transform="matrix(-1 0 0 1 122 2)" fill="#0FB36C"/>
<circle r="2" transform="matrix(-1 0 0 1 82 2)" fill="#0FB36C"/>
<circle r="2" transform="matrix(-1 0 0 1 42 2)" fill="#0FB36C"/>
<circle r="2" transform="matrix(-1 0 0 1 2 2)" fill="#0FB36C"/>
<circle r="2" transform="matrix(-1 0 0 1 122 42)" fill="#0FB36C"/>
<circle r="2" transform="matrix(-1 0 0 1 82 42)" fill="#0FB36C"/>
<circle r="2" transform="matrix(-1 0 0 1 42 42)" fill="#0FB36C"/>
<circle r="2" transform="matrix(-1 0 0 1 2 42)" fill="#0FB36C"/>
<circle r="2" transform="matrix(-1 0 0 1 122 82)" fill="#0FB36C"/>
<circle r="2" transform="matrix(-1 0 0 1 82 82)" fill="#0FB36C"/>
<circle r="2" transform="matrix(-1 0 0 1 42 82)" fill="#0FB36C"/>
<circle r="2" transform="matrix(-1 0 0 1 2 82)" fill="#0FB36C"/>
<circle r="2" transform="matrix(-1 0 0 1 122 122)" fill="#0FB36C"/>
<circle r="2" transform="matrix(-1 0 0 1 82 122)" fill="#0FB36C"/>
<circle r="2" transform="matrix(-1 0 0 1 42 122)" fill="#0FB36C"/>
<circle r="2" transform="matrix(-1 0 0 1 2 122)" fill="#0FB36C"/>
</svg>
