<svg width="28" height="27" viewBox="0 0 28 27" fill="none" xmlns="http://www.w3.org/2000/svg">
<path d="M2.47673 17.775V3.375C2.47673 3.05625 2.5858 2.78887 2.80393 2.57287C3.0213 2.35762 3.29094 2.25 3.61284 2.25H18.3822C18.7041 2.25 18.9738 2.35762 19.1911 2.57287C19.4093 2.78887 19.5183 3.05625 19.5183 3.375V13.5C19.5183 13.8188 19.4093 14.0857 19.1911 14.301C18.9738 14.517 18.7041 14.625 18.3822 14.625H7.02116L3.44242 18.1687C3.27201 18.3375 3.06826 18.3795 2.8312 18.2947C2.59489 18.2107 2.47673 18.0375 2.47673 17.775ZM8.15727 20.25C7.83537 20.25 7.56535 20.142 7.34722 19.926C7.12985 19.7108 7.02116 19.4438 7.02116 19.125V16.875H21.7906V6.75H24.0628C24.3847 6.75 24.6543 6.85763 24.8717 7.07288C25.0898 7.28888 25.1989 7.55625 25.1989 7.875V23.4C25.1989 23.6625 25.0807 23.8357 24.8444 23.9197C24.6073 24.0045 24.4036 23.9625 24.2332 23.7937L20.6544 20.25H8.15727Z" fill="white"/>
</svg>
