<svg width="22" height="21" viewBox="0 0 22 21" fill="none" xmlns="http://www.w3.org/2000/svg">
<g clip-path="url(#clip0_468_2932)">
<path fill-rule="evenodd" clip-rule="evenodd" d="M8.43958 7.25706H12.3452V9.1835C12.9078 8.07554 14.3506 7.08003 16.518 7.08003C20.6729 7.08003 21.6593 9.28555 21.6593 13.3321V20.8265H17.4529V14.2537C17.4529 11.9493 16.8903 10.6497 15.458 10.6497C13.4715 10.6497 12.646 12.0503 12.646 14.2527V20.8265H8.43958V7.25706ZM1.22664 20.6495H5.43305V7.08003H1.22664V20.6495ZM6.03562 2.65546C6.03577 3.00459 5.96585 3.35027 5.82991 3.6724C5.69397 3.99454 5.49473 4.2867 5.24376 4.53192C4.73521 5.0324 4.04684 5.31255 3.32985 5.31083C2.61411 5.31035 1.92733 5.03092 1.41803 4.53296C1.16797 4.28691 0.969404 3.99442 0.833703 3.67224C0.698002 3.35006 0.627837 3.00454 0.627228 2.65546C0.627228 1.95049 0.91116 1.27571 1.41908 0.777959C1.92794 0.279331 2.61501 -0.000220022 3.3309 9.18133e-05C4.04809 9.18133e-05 4.73584 0.280207 5.24376 0.777959C5.75063 1.27571 6.03562 1.95049 6.03562 2.65546Z" fill="white"/>
</g>
<defs>
<clipPath id="clip0_468_2932">
<rect width="21.032" height="20.8264" fill="white" transform="translate(0.627228 9.15527e-05)"/>
</clipPath>
</defs>
</svg>
