<svg width="23" height="24" viewBox="0 0 23 24" fill="none" xmlns="http://www.w3.org/2000/svg">
<path d="M4.21246 16.4485C3.17029 14.6902 2.80574 12.612 3.18728 10.6039C3.56881 8.59588 4.67018 6.79615 6.28462 5.5426C7.89906 4.28905 9.91554 3.66789 11.9555 3.79574C13.9955 3.92358 15.9186 4.79164 17.3639 6.23694C18.8092 7.68224 19.6773 9.6054 19.8051 11.6454C19.933 13.6853 19.3118 15.7018 18.0583 17.3162C16.8047 18.9307 15.005 20.0321 12.9969 20.4136C10.9889 20.7951 8.91065 20.4306 7.15233 19.3884L4.24746 20.2109C4.12845 20.2457 4.00226 20.2478 3.88213 20.2171C3.762 20.1864 3.65234 20.1239 3.56466 20.0362C3.47698 19.9485 3.4145 19.8389 3.38377 19.7187C3.35304 19.5986 3.35519 19.4724 3.39 19.3534L4.21246 16.4485Z" stroke="#0FB36C" stroke-width="1.8" stroke-linecap="round" stroke-linejoin="round"/>
<path d="M8.63953 10.7617H14.2393" stroke="#0FB36C" stroke-width="1.8" stroke-linecap="round" stroke-linejoin="round"/>
<path d="M8.63953 13.5616H14.2393" stroke="#0FB36C" stroke-width="1.8" stroke-linecap="round" stroke-linejoin="round"/>
</svg>
