<svg width="27" height="26" viewBox="0 0 27 26" fill="none" xmlns="http://www.w3.org/2000/svg">
<path d="M22.3798 4.875H5.96934C5.5341 4.875 5.1167 5.0462 4.80894 5.35095C4.50119 5.6557 4.32829 6.06902 4.32829 6.5V18.6875C4.32829 18.903 4.24184 19.1097 4.08797 19.262C3.93409 19.4144 3.72539 19.5 3.50777 19.5C3.29015 19.5 3.08145 19.4144 2.92757 19.262C2.77369 19.1097 2.68725 18.903 2.68725 18.6875V8.9375C2.68725 8.72201 2.6008 8.51535 2.44692 8.36298C2.29304 8.2106 2.08434 8.125 1.86673 8.125C1.64911 8.125 1.44041 8.2106 1.28653 8.36298C1.13265 8.51535 1.0462 8.72201 1.0462 8.9375V18.6875C1.0462 19.334 1.30555 19.954 1.76718 20.4111C2.22881 20.8682 2.85492 21.125 3.50777 21.125H21.5593C22.2113 21.1223 22.8358 20.8647 23.2969 20.4081C23.7579 19.9516 24.0181 19.3331 24.0208 18.6875V6.5C24.0208 6.06902 23.8479 5.6557 23.5402 5.35095C23.2324 5.0462 22.815 4.875 22.3798 4.875ZM18.2772 15.4375H10.0719C9.85433 15.4375 9.64563 15.3519 9.49175 15.1995C9.33787 15.0472 9.25142 14.8405 9.25142 14.625C9.25142 14.4095 9.33787 14.2028 9.49175 14.0505C9.64563 13.8981 9.85433 13.8125 10.0719 13.8125H18.2772C18.4948 13.8125 18.7035 13.8981 18.8574 14.0505C19.0112 14.2028 19.0977 14.4095 19.0977 14.625C19.0977 14.8405 19.0112 15.0472 18.8574 15.1995C18.7035 15.3519 18.4948 15.4375 18.2772 15.4375ZM18.2772 12.1875H10.0719C9.85433 12.1875 9.64563 12.1019 9.49175 11.9495C9.33787 11.7972 9.25142 11.5905 9.25142 11.375C9.25142 11.1595 9.33787 10.9528 9.49175 10.8005C9.64563 10.6481 9.85433 10.5625 10.0719 10.5625H18.2772C18.4948 10.5625 18.7035 10.6481 18.8574 10.8005C19.0112 10.9528 19.0977 11.1595 19.0977 11.375C19.0977 11.5905 19.0112 11.7972 18.8574 11.9495C18.7035 12.1019 18.4948 12.1875 18.2772 12.1875Z" fill="white"/>
</svg>
