<svg width="25" height="24" viewBox="0 0 25 24" fill="none" xmlns="http://www.w3.org/2000/svg">
<g clip-path="url(#clip0_468_2880)">
<path fill-rule="evenodd" clip-rule="evenodd" d="M24.4725 12C24.4725 18.627 19.0464 24 12.354 24C5.66158 24 0.235535 18.627 0.235535 12C0.235535 5.373 5.66158 0 12.354 0C19.0464 0 24.4725 5.373 24.4725 12ZM20.1179 11.058C20.3138 11.335 20.4249 11.662 20.437 12C20.4423 12.3307 20.3529 12.6561 20.1792 12.9385C20.0055 13.221 19.7546 13.4489 19.4554 13.596C19.4696 13.772 19.4696 13.948 19.4554 14.124C19.4554 16.812 16.2925 18.996 12.3904 18.996C8.48822 18.996 5.32529 16.812 5.32529 14.124C5.31165 13.9483 5.31165 13.7717 5.32529 13.596C5.09421 13.4889 4.88928 13.3335 4.72461 13.1405C4.55994 12.9475 4.43942 12.7215 4.37134 12.478C4.30326 12.2345 4.28924 11.9793 4.33024 11.7299C4.37123 11.4805 4.46627 11.2429 4.60883 11.0333C4.75138 10.8238 4.93806 10.6473 5.15605 10.516C5.37404 10.3847 5.61815 10.3016 5.87162 10.2726C6.12508 10.2436 6.38189 10.2693 6.62438 10.3479C6.86687 10.4265 7.0893 10.5562 7.27637 10.728C8.67275 9.79023 10.3155 9.27718 12.0026 9.252L12.8993 5.088C12.9094 5.03979 12.929 4.99405 12.9571 4.95341C12.9852 4.91277 13.0211 4.87805 13.0628 4.85127C13.1045 4.82448 13.1512 4.80615 13.2001 4.79735C13.249 4.78855 13.2992 4.78945 13.3477 4.8L16.3168 5.388C16.4617 5.14132 16.6908 4.9539 16.9627 4.85937C17.2347 4.76484 17.5318 4.7694 17.8007 4.87222C18.0696 4.97505 18.2926 5.1694 18.4298 5.42041C18.567 5.67141 18.6094 5.96262 18.5493 6.24177C18.4893 6.52092 18.3307 6.76972 18.102 6.94352C17.8734 7.11732 17.5897 7.20473 17.3018 7.19006C17.014 7.1754 16.7408 7.05962 16.5314 6.8635C16.322 6.66739 16.19 6.40378 16.1592 6.12L13.5659 5.58L12.7782 9.324C14.4447 9.3594 16.0652 9.87206 17.4438 10.8C17.6278 10.6248 17.848 10.4911 18.0891 10.4082C18.3303 10.3252 18.5867 10.295 18.8408 10.3195C19.0949 10.344 19.3406 10.4227 19.5611 10.5502C19.7815 10.6777 19.9715 10.8509 20.1179 11.058ZM8.52255 12.533C8.4341 12.6641 8.37257 12.8111 8.3415 12.9657C8.31043 13.1203 8.31041 13.2794 8.34145 13.4341C8.40414 13.7463 8.58952 14.0211 8.85682 14.198C9.12412 14.3749 9.45144 14.4394 9.76677 14.3773C9.9229 14.3466 10.0714 14.2857 10.2038 14.1981C10.3361 14.1106 10.4498 13.9981 10.5383 13.867C10.7169 13.6023 10.7821 13.2782 10.7194 12.9659C10.6567 12.6537 10.4713 12.3789 10.204 12.202C9.93669 12.0251 9.60937 11.9606 9.29404 12.0227C8.97871 12.0847 8.7012 12.2683 8.52255 12.533ZM12.3661 17.424C13.4416 17.468 14.5 17.19 15.3594 16.548C15.4237 16.4859 15.4604 16.4011 15.4616 16.3122C15.4627 16.2234 15.4281 16.1377 15.3655 16.074C15.3344 16.0425 15.2974 16.0173 15.2566 16C15.2157 15.9826 15.1718 15.9734 15.1274 15.9728C15.0376 15.9717 14.9511 16.0059 14.8868 16.068C14.1513 16.5904 13.2578 16.8487 12.354 16.8C11.4513 16.8399 10.562 16.5732 9.83337 16.044C9.77058 15.993 9.69087 15.9669 9.60974 15.9708C9.52861 15.9748 9.45186 16.0085 9.39442 16.0653C9.33699 16.1222 9.30297 16.1982 9.29898 16.2786C9.295 16.3589 9.32133 16.4378 9.37287 16.5C10.2326 17.1416 11.2905 17.4681 12.3661 17.424ZM14.4677 14.246C14.6676 14.378 14.8898 14.496 15.1291 14.496C15.2935 14.4979 15.4565 14.4666 15.6083 14.4041C15.7601 14.3416 15.8974 14.2492 16.0119 14.1324C16.1264 14.0156 16.2157 13.877 16.2744 13.725C16.3331 13.5729 16.3598 13.4106 16.3531 13.248C16.353 13.0407 16.2987 12.837 16.1955 12.6567C16.0923 12.4763 15.9436 12.3256 15.7641 12.219C15.5845 12.1125 15.3801 12.0539 15.1709 12.0488C14.9616 12.0437 14.7546 12.0924 14.57 12.1902C14.3854 12.2879 14.2295 12.4313 14.1175 12.6064C14.0055 12.7815 13.9412 12.9824 13.9309 13.1894C13.9206 13.3964 13.9646 13.6026 14.0587 13.7877C14.1528 13.9729 14.2937 14.1308 14.4677 14.246Z" fill="white"/>
</g>
<defs>
<clipPath id="clip0_468_2880">
<rect width="24.237" height="24" fill="white" transform="translate(0.235535)"/>
</clipPath>
</defs>
</svg>
