<svg width="27" height="26" viewBox="0 0 27 26" fill="none" xmlns="http://www.w3.org/2000/svg">
<path d="M13.3427 1.625C6.99703 1.625 1.85543 6.71633 1.85543 13C1.85543 19.2837 6.99703 24.375 13.3427 24.375C19.6884 24.375 24.83 19.2837 24.83 13C24.83 6.71633 19.6884 1.625 13.3427 1.625ZM8.98371 17.971C8.91322 18.09 8.81232 18.1886 8.69115 18.2568C8.56998 18.325 8.43282 18.3604 8.29345 18.3595C8.15141 18.3607 8.01183 18.3227 7.89037 18.2498C7.79993 18.1979 7.72074 18.1288 7.65733 18.0465C7.59391 17.9642 7.54754 17.8704 7.52085 17.7703C7.49417 17.6702 7.48771 17.5659 7.50184 17.4634C7.51597 17.3608 7.55041 17.262 7.60319 17.1727L8.3873 15.8818C8.42692 15.8152 8.48345 15.76 8.55129 15.7217C8.61912 15.6834 8.69588 15.6633 8.77397 15.6635H8.88987C9.45859 15.6635 9.85654 16.0022 9.97244 16.3302L8.98371 17.971ZM15.6223 15.4319L10.4873 15.4375H7.07446C6.96709 15.438 6.86074 15.4168 6.76186 15.3753C6.66299 15.3338 6.57366 15.2729 6.49928 15.1962C6.4249 15.1195 6.36703 15.0287 6.32918 14.9292C6.29132 14.8297 6.27428 14.7236 6.27907 14.6174C6.29548 14.1908 6.67138 13.8679 7.09959 13.8679H9.57346L12.5063 8.9243L11.5566 7.32215C11.3427 6.95703 11.4376 6.47563 11.8043 6.24609C11.8947 6.1882 11.9959 6.14901 12.102 6.13087C12.2081 6.11274 12.3168 6.11603 12.4216 6.14055C12.5263 6.16508 12.625 6.21033 12.7117 6.27358C12.7983 6.33684 12.8712 6.41679 12.9258 6.50863L13.4335 7.36734H13.4391L13.9474 6.50863C14.0021 6.41727 14.0748 6.33774 14.1612 6.27481C14.2476 6.21187 14.3459 6.16681 14.4503 6.14231C14.5547 6.11781 14.663 6.11437 14.7687 6.1322C14.8745 6.15003 14.9755 6.18877 15.0658 6.24609C15.4305 6.47563 15.5243 6.95703 15.3089 7.32367L14.3592 8.92582L13.4361 10.4843L11.4314 13.8694V13.875H14.3858C14.7561 13.875 15.2202 14.072 15.4079 14.3889L15.4243 14.4219C15.5899 14.7007 15.6838 14.8921 15.6838 15.1709C15.6811 15.2614 15.6607 15.3506 15.6238 15.4334L15.6223 15.4319ZM19.6095 15.4375H18.2192V15.4431L19.2356 17.1549C19.3449 17.3352 19.3784 17.5508 19.3288 17.7553C19.2792 17.9597 19.1506 18.1368 18.9705 18.2482C18.8457 18.3236 18.7023 18.3635 18.5561 18.3635C18.4171 18.3635 18.2805 18.3278 18.1596 18.26C18.0386 18.1922 17.9374 18.0945 17.8659 17.9766L16.3638 15.4446L15.4305 13.8704L14.2263 11.832C14.0519 11.541 13.9571 11.2099 13.9513 10.8716C13.9454 10.5332 14.0288 10.1991 14.193 9.90234C14.431 9.48645 14.613 9.37727 14.613 9.37727L17.2915 13.8633H19.5946C20.0254 13.8633 20.3951 14.1913 20.4151 14.6123C20.4193 14.7193 20.4015 14.8261 20.363 14.9262C20.3244 15.0262 20.2658 15.1175 20.1907 15.1946C20.1156 15.2717 20.0255 15.3329 19.9259 15.3747C19.8263 15.4164 19.7192 15.4378 19.611 15.4375H19.6095Z" fill="white"/>
</svg>
