<svg width="40" height="40" viewBox="0 0 40 40" fill="none" xmlns="http://www.w3.org/2000/svg">
<path d="M12.2581 29.0323C12.2581 29.5667 12.6913 30 13.2258 30C13.7603 30 14.1935 29.5667 14.1935 29.0323L12.2581 29.0323ZM25.8064 29.0323C25.8064 29.5667 26.2397 30 26.7742 30C27.3086 30 27.7419 29.5667 27.7419 29.0323L25.8064 29.0323ZM10.3226 28.0645C9.7881 28.0645 9.35483 28.4978 9.35483 29.0323C9.35483 29.5667 9.7881 30 10.3226 30L10.3226 28.0645ZM29.6774 30C30.2119 30 30.6451 29.5667 30.6451 29.0323C30.6451 28.4978 30.2119 28.0645 29.6774 28.0645L29.6774 30ZM14.1935 19.1651C14.1935 15.8671 16.8108 13.2258 20 13.2258L20 11.2903C15.7066 11.2903 12.2581 14.8338 12.2581 19.1651L14.1935 19.1651ZM20 13.2258C23.1892 13.2258 25.8064 15.8671 25.8064 19.1651L27.7419 19.1651C27.7419 14.8338 24.2934 11.2903 20 11.2903L20 13.2258ZM12.2581 19.1651L12.2581 29.0323L14.1935 29.0323L14.1935 19.1651L12.2581 19.1651ZM25.8064 19.1651L25.8064 29.0323L27.7419 29.0323L27.7419 19.1651L25.8064 19.1651ZM10.3226 30L29.6774 30L29.6774 28.0645L10.3226 28.0645L10.3226 30Z" fill="#88C526"/>
<path d="M17.0968 12.2581C17.0968 12.7925 17.53 13.2258 18.0645 13.2258C18.599 13.2258 19.0323 12.7925 19.0323 12.2581L17.0968 12.2581ZM20.9677 12.2581C20.9677 12.7925 21.401 13.2258 21.9355 13.2258C22.47 13.2258 22.9032 12.7925 22.9032 12.2581L20.9677 12.2581ZM19.0323 9.60151C19.0323 9.14508 19.4287 8.70967 20 8.70967L20 6.77419C18.4334 6.77419 17.0968 8.0039 17.0968 9.60151L19.0323 9.60151ZM20 8.70967C20.5713 8.70967 20.9677 9.14508 20.9677 9.60151L22.9032 9.60151C22.9032 8.0039 21.5666 6.77419 20 6.77419L20 8.70967ZM17.0968 9.60151L17.0968 12.2581L19.0323 12.2581L19.0323 9.60151L17.0968 9.60151ZM20.9677 9.60151L20.9677 12.2581L22.9032 12.2581L22.9032 9.60151L20.9677 9.60151Z" fill="#88C526"/>
<path d="M20 32.9032C21.7816 32.9032 23.2258 31.459 23.2258 29.6774L23.2258 29.0323L16.7742 29.0323L16.7742 29.6774C16.7742 31.459 18.2184 32.9032 20 32.9032Z" stroke="#88C526" stroke-width="1.93548" stroke-linecap="round" stroke-linejoin="round"/>
<path d="M31.5614 19.9734C31.1904 20.3581 31.2016 20.9708 31.5863 21.3418C31.971 21.7128 32.5837 21.7016 32.9547 21.3169L31.5614 19.9734ZM32.9977 13.5695C32.653 13.161 32.0425 13.1092 31.634 13.4539C31.2255 13.7986 31.1738 14.4091 31.5184 14.8176L32.9977 13.5695ZM32.2581 20.6452C32.9547 21.3169 32.955 21.3165 32.9554 21.3161C32.9556 21.316 32.9559 21.3156 32.9562 21.3153C32.9568 21.3147 32.9574 21.3141 32.958 21.3134C32.9593 21.3121 32.9608 21.3105 32.9625 21.3088C32.9657 21.3053 32.9697 21.301 32.9744 21.2961C32.9837 21.2861 32.9957 21.273 33.01 21.2571C33.0387 21.2251 33.077 21.1813 33.1226 21.1262C33.2137 21.0161 33.3351 20.8599 33.4684 20.6624C33.7332 20.2702 34.0553 19.6997 34.2719 18.9935C34.72 17.5333 34.6853 15.5696 32.9977 13.5695L31.5184 14.8176C32.734 16.2583 32.6994 17.5204 32.4216 18.4258C32.2754 18.9024 32.0531 19.2997 31.8642 19.5795C31.7707 19.7181 31.688 19.8239 31.6317 19.892C31.6036 19.9259 31.5823 19.9501 31.5699 19.9639C31.5637 19.9709 31.5597 19.9752 31.5582 19.9768C31.5574 19.9776 31.5573 19.9777 31.5578 19.9772C31.5581 19.9769 31.5585 19.9764 31.5591 19.9758C31.5594 19.9755 31.5598 19.9751 31.5602 19.9747C31.5603 19.9745 31.5607 19.9742 31.5608 19.9741C31.5611 19.9738 31.5614 19.9734 32.2581 20.6452Z" fill="#88C526"/>
<path d="M34.8235 22.5183C34.4328 22.883 34.4117 23.4954 34.7764 23.8861C35.1411 24.2768 35.7534 24.298 36.1442 23.9333L34.8235 22.5183ZM36.1899 10.951C35.8243 10.5611 35.2119 10.5414 34.822 10.9069C34.4321 11.2724 34.4123 11.8849 34.7779 12.2748L36.1899 10.951ZM35.4839 23.2258C36.1442 23.9333 36.1446 23.9329 36.145 23.9325C36.1451 23.9324 36.1456 23.932 36.1459 23.9316C36.1466 23.931 36.1473 23.9303 36.1482 23.9295C36.1499 23.9279 36.1519 23.926 36.1543 23.9237C36.1591 23.9192 36.1653 23.9133 36.1727 23.9061C36.1877 23.8916 36.2079 23.8719 36.2327 23.8469C36.2825 23.7971 36.3511 23.7264 36.4343 23.636C36.6004 23.4554 36.8257 23.1947 37.0746 22.8629C37.5697 22.2028 38.1724 21.2418 38.5773 20.0542C38.984 18.8612 39.194 17.429 38.8829 15.8529C38.5711 14.2733 37.7486 12.6137 36.1899 10.951L34.7779 12.2748C36.1223 13.7089 36.7514 15.0492 36.984 16.2277C37.2173 17.4097 37.0644 18.4937 36.7453 19.4297C36.4244 20.3711 35.9384 21.152 35.5262 21.7016C35.3214 21.9746 35.1385 22.1857 35.0098 22.3257C34.9455 22.3956 34.8951 22.4474 34.8626 22.4799C34.8463 22.4962 34.8346 22.5076 34.8279 22.5141C34.8246 22.5173 34.8225 22.5193 34.8218 22.52C34.8214 22.5204 34.8213 22.5204 34.8216 22.5201C34.8218 22.52 34.822 22.5198 34.8223 22.5195C34.8225 22.5193 34.8228 22.519 34.8229 22.519C34.8232 22.5187 34.8235 22.5183 35.4839 23.2258Z" fill="#88C526"/>
<path d="M8.43857 19.9734C8.80956 20.3581 8.79842 20.9708 8.41369 21.3418C8.02895 21.7128 7.41631 21.7016 7.04532 21.3169L8.43857 19.9734ZM7.00231 13.5695C7.34697 13.161 7.95752 13.1092 8.36601 13.4539C8.7745 13.7986 8.82624 14.4091 8.48158 14.8176L7.00231 13.5695ZM7.74194 20.6452C7.04532 21.3169 7.04496 21.3165 7.04458 21.3161C7.04444 21.316 7.04406 21.3156 7.04378 21.3153C7.04322 21.3147 7.04262 21.3141 7.04197 21.3134C7.04067 21.3121 7.0392 21.3105 7.03755 21.3088C7.03425 21.3053 7.03026 21.301 7.0256 21.2961C7.0163 21.2861 7.00433 21.273 6.98999 21.2571C6.96132 21.2251 6.92305 21.1813 6.87741 21.1262C6.78632 21.0161 6.66486 20.8599 6.53156 20.6624C6.26684 20.2702 5.94473 19.6997 5.72806 18.9935C5.28003 17.5333 5.31469 15.5696 7.00231 13.5695L8.48158 14.8176C7.26597 16.2583 7.30063 17.5204 7.57841 18.4258C7.72464 18.9024 7.94689 19.2997 8.13579 19.5795C8.22931 19.7181 8.31198 19.8239 8.36832 19.892C8.3964 19.9259 8.41766 19.9501 8.4301 19.9639C8.43632 19.9709 8.4403 19.9752 8.4418 19.9768C8.44255 19.9776 8.44268 19.9777 8.44215 19.9772C8.44189 19.9769 8.44146 19.9764 8.44086 19.9758C8.44057 19.9755 8.44022 19.9751 8.43984 19.9747C8.43965 19.9745 8.43933 19.9742 8.43924 19.9741C8.43891 19.9738 8.43857 19.9734 7.74194 20.6452Z" fill="#88C526"/>
<path d="M5.17642 22.5183C5.56715 22.883 5.58826 23.4954 5.22359 23.8861C4.85891 24.2768 4.24653 24.298 3.8558 23.9333L5.17642 22.5183ZM3.81011 10.951C4.17565 10.5611 4.78808 10.5414 5.17799 10.9069C5.56791 11.2724 5.58766 11.8849 5.22212 12.2748L3.81011 10.951ZM4.51611 23.2258C3.8558 23.9333 3.85541 23.9329 3.855 23.9325C3.85483 23.9324 3.85439 23.932 3.85406 23.9316C3.85339 23.931 3.85263 23.9303 3.85178 23.9295C3.85008 23.9279 3.84803 23.926 3.84564 23.9237C3.84086 23.9192 3.8347 23.9133 3.82723 23.9061C3.81229 23.8916 3.79212 23.8719 3.76724 23.8469C3.71751 23.7971 3.64886 23.7264 3.5657 23.636C3.3996 23.4554 3.17424 23.1947 2.92539 22.8629C2.4303 22.2028 1.82758 21.2418 1.42272 20.0542C1.016 18.8612 0.806015 17.429 1.11709 15.8529C1.42885 14.2733 2.25137 12.6137 3.81011 10.951L5.22212 12.2748C3.87763 13.7089 3.24854 15.0492 3.01594 16.2277C2.78266 17.4097 2.93558 18.4937 3.25467 19.4297C3.57561 20.3711 4.0616 21.152 4.47377 21.7016C4.67855 21.9746 4.86145 22.1857 4.99022 22.3257C5.05448 22.3956 5.10491 22.4474 5.1374 22.4799C5.15364 22.4962 5.16535 22.5076 5.17204 22.5141C5.17538 22.5173 5.17746 22.5193 5.17821 22.52C5.17859 22.5204 5.17863 22.5204 5.17834 22.5201C5.17819 22.52 5.17796 22.5198 5.17764 22.5195C5.17748 22.5193 5.17717 22.519 5.17709 22.519C5.17677 22.5187 5.17642 22.5183 4.51611 23.2258Z" fill="#88C526"/>
</svg>
