<svg width="24" height="23" viewBox="0 0 24 23" fill="none" xmlns="http://www.w3.org/2000/svg">
<g clip-path="url(#clip0_468_2923)">
<path d="M12.2176 7.75038C10.1854 7.75038 8.52702 9.39258 8.52702 11.4049C8.52702 13.4172 10.1854 15.0594 12.2176 15.0594C14.2498 15.0594 15.9082 13.4172 15.9082 11.4049C15.9082 9.39258 14.2498 7.75038 12.2176 7.75038ZM23.2866 11.4049C23.2866 9.89155 23.3005 8.39191 23.2147 6.8813C23.1288 5.1267 22.7246 3.56948 21.4289 2.28643C20.1304 1.00063 18.5606 0.6031 16.7886 0.518111C15.2604 0.433122 13.7459 0.44683 12.2204 0.44683C10.6921 0.44683 9.17765 0.433122 7.65213 0.518111C5.8802 0.6031 4.30761 1.00337 3.01189 2.28643C1.7134 3.57222 1.31194 5.1267 1.22612 6.8813C1.14029 8.39465 1.15413 9.89429 1.15413 11.4049C1.15413 12.9155 1.14029 14.4179 1.22612 15.9285C1.31194 17.6831 1.71616 19.2403 3.01189 20.5234C4.31038 21.8092 5.8802 22.2067 7.65213 22.2917C9.18042 22.3767 10.6949 22.363 12.2204 22.363C13.7487 22.363 15.2631 22.3767 16.7886 22.2917C18.5606 22.2067 20.1332 21.8064 21.4289 20.5234C22.7274 19.2376 23.1288 17.6831 23.2147 15.9285C23.3033 14.4179 23.2866 12.9182 23.2866 11.4049ZM12.2176 17.0279C9.07521 17.0279 6.53914 14.5166 6.53914 11.4049C6.53914 8.29321 9.07521 5.78193 12.2176 5.78193C15.36 5.78193 17.8961 8.29321 17.8961 11.4049C17.8961 14.5166 15.36 17.0279 12.2176 17.0279ZM18.1287 6.86485C17.395 6.86485 16.8025 6.27816 16.8025 5.55164C16.8025 4.82512 17.395 4.23843 18.1287 4.23843C18.8624 4.23843 19.4548 4.82512 19.4548 5.55164C19.4551 5.72415 19.4209 5.89502 19.3543 6.05444C19.2878 6.21387 19.1901 6.35872 19.0669 6.48071C18.9437 6.60269 18.7974 6.69941 18.6364 6.76533C18.4754 6.83125 18.3029 6.86507 18.1287 6.86485Z" fill="white"/>
</g>
<defs>
<clipPath id="clip0_468_2923">
<rect width="23.0351" height="22.8099" fill="white" transform="translate(0.700073 -6.10352e-05)"/>
</clipPath>
</defs>
</svg>
