<svg width="28" height="27" viewBox="0 0 28 27" fill="none" xmlns="http://www.w3.org/2000/svg">
<path d="M13.6298 15.7219C13.7245 15.9469 13.8949 16.0594 14.141 16.0594C14.3872 16.0594 14.5576 15.9469 14.6523 15.7219L15.902 12.9938L18.6571 11.7562C18.8843 11.6625 18.9979 11.4937 18.9979 11.25C18.9979 11.0063 18.8843 10.8375 18.6571 10.7438L15.902 9.50625L14.6523 6.77813C14.5576 6.55312 14.3872 6.44062 14.141 6.44062C13.8949 6.44062 13.7245 6.55312 13.6298 6.77813L12.3801 9.50625L9.62501 10.7438C9.39779 10.8375 9.28418 11.0063 9.28418 11.25C9.28418 11.4937 9.39779 11.6625 9.62501 11.7562L12.3801 12.9938L13.6298 15.7219ZM2.77997 22.0219V4.5C2.77997 3.88125 3.00265 3.35137 3.448 2.91037C3.8926 2.47012 4.42732 2.25 5.05218 2.25H23.2299C23.8548 2.25 24.3899 2.47012 24.8352 2.91037C25.2798 3.35137 25.5021 3.88125 25.5021 4.5V18C25.5021 18.6187 25.2798 19.1486 24.8352 19.5896C24.3899 20.0299 23.8548 20.25 23.2299 20.25H7.3244L4.71135 22.8375C4.35158 23.1937 3.93956 23.2732 3.47527 23.076C3.01173 22.8795 2.77997 22.5281 2.77997 22.0219Z" fill="white"/>
</svg>
