<svg width="23" height="22" viewBox="0 0 23 22" fill="none" xmlns="http://www.w3.org/2000/svg">
<g clip-path="url(#clip0_468_2942)">
<path d="M11.6315 0C5.50878 0 0.527496 4.9335 0.527496 10.9963C0.527496 17.0647 5.50878 22 11.6315 22C17.7597 22 22.7447 17.0638 22.7447 10.9963C22.7447 4.9335 17.7597 0 11.6315 0ZM5.99663 15.037C7.26803 14.6513 8.59011 14.4543 9.91982 14.4522C12.1545 14.4522 14.3605 15.0132 16.2999 16.0747C16.4156 16.137 16.5202 16.3423 16.5683 16.599C16.6146 16.8557 16.5961 17.1187 16.5202 17.2553C16.4844 17.3203 16.436 17.3776 16.3777 17.4239C16.3194 17.4702 16.2524 17.5046 16.1806 17.525C16.1087 17.5455 16.0335 17.5516 15.9593 17.5431C15.8851 17.5346 15.8133 17.5115 15.7481 17.4753C14.3236 16.7015 12.7567 16.2189 11.1403 16.0561C9.52387 15.8933 7.89089 16.0536 6.33822 16.5275C6.26694 16.5503 6.19179 16.5589 6.11714 16.5527C6.04249 16.5464 5.96984 16.5256 5.90342 16.4913C5.83699 16.457 5.77812 16.4099 5.73024 16.3529C5.68235 16.2958 5.6464 16.2299 5.62449 16.159C5.52544 15.8382 5.73003 15.1232 5.99663 15.037ZM5.51248 10.9853C6.94878 10.5989 8.43054 10.4032 9.91889 10.4032C12.5979 10.4032 15.2575 11.0449 17.6116 12.2604C17.7773 12.3429 17.8986 12.4841 17.9541 12.6564C17.9822 12.7434 17.9924 12.8352 17.9841 12.9262C17.9759 13.0171 17.9493 13.1056 17.906 13.1863C17.6958 13.5933 17.4496 13.8673 17.295 13.8673C17.1822 13.8668 17.0712 13.8398 16.971 13.7885C14.7948 12.6635 12.3747 12.0802 9.91982 12.089C8.55433 12.0863 7.19475 12.2667 5.87814 12.6252C5.79031 12.649 5.69861 12.6554 5.60827 12.6441C5.51794 12.6328 5.43074 12.604 5.35166 12.5593C5.27257 12.5146 5.20315 12.4549 5.14736 12.3837C5.09156 12.3124 5.05049 12.231 5.02648 12.144C4.9228 11.7572 5.16071 11.0807 5.51248 10.9853ZM5.38751 8.33983C5.28331 8.36631 5.17485 8.3721 5.06839 8.35685C4.96193 8.3416 4.85956 8.30563 4.76722 8.251C4.67487 8.19637 4.59436 8.12417 4.53034 8.03857C4.46632 7.95296 4.42005 7.85565 4.39422 7.75225C4.28035 7.29575 4.56825 6.76592 4.98667 6.66142C6.60067 6.26777 8.25667 6.06803 9.91889 6.0665C13.1126 6.0665 16.173 6.77783 19.0131 8.18125C19.2083 8.27733 19.3569 8.44621 19.4263 8.65076C19.4958 8.85531 19.4803 9.0788 19.3834 9.27208C19.251 9.53608 18.9641 9.82025 18.6475 9.82025C18.5233 9.81979 18.4008 9.79258 18.2883 9.7405C15.6913 8.45042 12.8244 7.78285 9.91889 7.79167C8.40535 7.79167 6.88069 7.97592 5.38751 8.33983Z" fill="white"/>
</g>
<defs>
<clipPath id="clip0_468_2942">
<rect width="22.2172" height="22" fill="white" transform="translate(0.527496)"/>
</clipPath>
</defs>
</svg>
