<svg width="300" height="121" viewBox="0 0 300 121" fill="none" xmlns="http://www.w3.org/2000/svg">
<path d="M25.4645 15.9134C25.294 14.1946 24.5625 12.8594 23.2699 11.9077C21.9773 10.956 20.223 10.4801 18.0071 10.4801C16.5014 10.4801 15.2301 10.6932 14.1932 11.1193C13.1563 11.5312 12.3608 12.1065 11.8068 12.8452C11.267 13.5838 10.9972 14.4219 10.9972 15.3594C10.9688 16.1406 11.1321 16.8224 11.4872 17.4048C11.8565 17.9872 12.3608 18.4915 13 18.9176C13.6392 19.3295 14.3778 19.6918 15.2159 20.0043C16.054 20.3026 16.9489 20.5582 17.9006 20.7713L21.821 21.7088C23.7244 22.1349 25.4716 22.7031 27.0625 23.4134C28.6534 24.1236 30.0313 24.9972 31.196 26.0341C32.3608 27.071 33.2628 28.2926 33.902 29.6989C34.5554 31.1051 34.8892 32.7173 34.9034 34.5355C34.8892 37.206 34.2074 39.5213 32.858 41.4815C31.5227 43.4276 29.5909 44.9403 27.0625 46.0199C24.5483 47.0852 21.5156 47.6179 17.9645 47.6179C14.4418 47.6179 11.3736 47.0781 8.75994 45.9986C6.16051 44.919 4.12926 43.321 2.66619 41.2045C1.21733 39.0739 0.457386 36.4389 0.386364 33.2997H9.31392C9.41335 34.7628 9.83239 35.9844 10.571 36.9645C11.3239 37.9304 12.3253 38.6619 13.5753 39.1591C14.8395 39.642 16.267 39.8835 17.858 39.8835C19.4205 39.8835 20.777 39.6562 21.9276 39.2017C23.0923 38.7472 23.9943 38.1151 24.6335 37.3054C25.2727 36.4957 25.5923 35.5653 25.5923 34.5142C25.5923 33.5341 25.3011 32.7102 24.7188 32.0426C24.1506 31.375 23.3125 30.8068 22.2045 30.3381C21.1108 29.8693 19.7685 29.4432 18.1776 29.0597L13.4261 27.8665C9.74716 26.9716 6.84233 25.5724 4.71165 23.669C2.58097 21.7656 1.52273 19.2017 1.53693 15.9773C1.52273 13.3352 2.22585 11.027 3.64631 9.05256C5.08097 7.07812 7.0483 5.53693 9.5483 4.42898C12.0483 3.32102 14.8892 2.76704 18.071 2.76704C21.3097 2.76704 24.1364 3.32102 26.5511 4.42898C28.9801 5.53693 30.8693 7.07812 32.2188 9.05256C33.5682 11.027 34.2642 13.3139 34.3068 15.9134H25.4645ZM55.8533 47.6392C52.4869 47.6392 49.5891 46.9574 47.1602 45.5938C44.7454 44.2159 42.8846 42.2699 41.5778 39.7557C40.271 37.2273 39.6175 34.2372 39.6175 30.7855C39.6175 27.419 40.271 24.4645 41.5778 21.9219C42.8846 19.3793 44.7241 17.3977 47.0962 15.9773C49.4826 14.5568 52.2809 13.8466 55.4911 13.8466C57.6502 13.8466 59.6602 14.1946 61.521 14.8906C63.396 15.5724 65.0295 16.6023 66.4215 17.9801C67.8278 19.358 68.9215 21.0909 69.7028 23.179C70.484 25.2528 70.8746 27.6818 70.8746 30.4659V32.9588H43.2397V27.3338H62.3306C62.3306 26.027 62.0465 24.8693 61.4783 23.8608C60.9102 22.8523 60.1218 22.0639 59.1133 21.4957C58.119 20.9134 56.9613 20.6222 55.6403 20.6222C54.2624 20.6222 53.0408 20.9418 51.9755 21.581C50.9244 22.206 50.1005 23.0511 49.5039 24.1165C48.9073 25.1676 48.6019 26.3395 48.5877 27.6321V32.9801C48.5877 34.5994 48.886 35.9986 49.4826 37.1776C50.0934 38.3565 50.9528 39.2656 52.0607 39.9048C53.1687 40.544 54.4826 40.8636 56.0025 40.8636C57.011 40.8636 57.9343 40.7216 58.7724 40.4375C59.6104 40.1534 60.3278 39.7273 60.9244 39.1591C61.521 38.5909 61.9755 37.8949 62.288 37.071L70.6829 37.625C70.2567 39.642 69.3832 41.4034 68.0621 42.9091C66.7553 44.4006 65.065 45.5653 62.9911 46.4034C60.9315 47.2273 58.5522 47.6392 55.8533 47.6392ZM85.8746 28.0795V47H76.7979V14.2727H85.4485V20.0469H85.832C86.5565 18.1435 87.771 16.6378 89.4755 15.5298C91.18 14.4077 93.2468 13.8466 95.6758 13.8466C97.9485 13.8466 99.93 14.3437 101.62 15.3381C103.311 16.3324 104.625 17.7528 105.562 19.5994C106.5 21.4318 106.968 23.6193 106.968 26.1619V47H97.8917V27.7812C97.9059 25.7784 97.3945 24.2159 96.3576 23.0938C95.3207 21.9574 93.8931 21.3892 92.0749 21.3892C90.8533 21.3892 89.7738 21.652 88.8363 22.1776C87.913 22.7031 87.1886 23.4702 86.663 24.4787C86.1516 25.473 85.8888 26.6733 85.8746 28.0795ZM131.53 14.2727V21.0909H111.821V14.2727H131.53ZM116.295 6.43182H125.372V36.9432C125.372 37.7812 125.5 38.4347 125.756 38.9034C126.011 39.358 126.366 39.6776 126.821 39.8622C127.29 40.0469 127.83 40.1392 128.44 40.1392C128.866 40.1392 129.293 40.1037 129.719 40.0327C130.145 39.9474 130.472 39.8835 130.699 39.8409L132.126 46.5952C131.672 46.7372 131.033 46.9006 130.209 47.0852C129.385 47.2841 128.384 47.4048 127.205 47.4474C125.017 47.5327 123.099 47.2415 121.452 46.5739C119.818 45.9062 118.547 44.8693 117.638 43.4631C116.729 42.0568 116.281 40.2812 116.295 38.1364V6.43182ZM137.442 47V14.2727H146.519V47H137.442ZM142.002 10.054C140.653 10.054 139.495 9.60653 138.529 8.71165C137.577 7.80256 137.102 6.71591 137.102 5.4517C137.102 4.2017 137.577 3.12926 138.529 2.23438C139.495 1.32528 140.653 0.870736 142.002 0.870736C143.352 0.870736 144.502 1.32528 145.454 2.23438C146.42 3.12926 146.903 4.2017 146.903 5.4517C146.903 6.71591 146.42 7.80256 145.454 8.71165C144.502 9.60653 143.352 10.054 142.002 10.054ZM153.79 47V14.2727H162.441V20.0469H162.824C163.506 18.1293 164.642 16.6165 166.233 15.5085C167.824 14.4006 169.728 13.8466 171.944 13.8466C174.188 13.8466 176.098 14.4077 177.675 15.5298C179.252 16.6378 180.303 18.1435 180.828 20.0469H181.169C181.837 18.1719 183.044 16.6733 184.792 15.5511C186.553 14.4148 188.634 13.8466 191.034 13.8466C194.088 13.8466 196.567 14.8196 198.471 16.7656C200.388 18.6974 201.347 21.4389 201.347 24.9901V47H192.292V26.7798C192.292 24.9616 191.809 23.598 190.843 22.6889C189.877 21.7798 188.669 21.3253 187.221 21.3253C185.573 21.3253 184.287 21.8509 183.364 22.902C182.441 23.9389 181.979 25.3097 181.979 27.0142V47H173.179V26.5881C173.179 24.983 172.718 23.7045 171.794 22.7528C170.885 21.8011 169.685 21.3253 168.194 21.3253C167.185 21.3253 166.276 21.581 165.466 22.0923C164.671 22.5895 164.039 23.2926 163.57 24.2017C163.101 25.0966 162.867 26.1477 162.867 27.3551V47H153.79ZM223.431 47.6392C220.065 47.6392 217.167 46.9574 214.738 45.5938C212.324 44.2159 210.463 42.2699 209.156 39.7557C207.849 37.2273 207.196 34.2372 207.196 30.7855C207.196 27.419 207.849 24.4645 209.156 21.9219C210.463 19.3793 212.302 17.3977 214.674 15.9773C217.061 14.5568 219.859 13.8466 223.069 13.8466C225.228 13.8466 227.238 14.1946 229.099 14.8906C230.974 15.5724 232.608 16.6023 234 17.9801C235.406 19.358 236.5 21.0909 237.281 23.179C238.062 25.2528 238.453 27.6818 238.453 30.4659V32.9588H210.818V27.3338H229.909C229.909 26.027 229.625 24.8693 229.056 23.8608C228.488 22.8523 227.7 22.0639 226.691 21.4957C225.697 20.9134 224.539 20.6222 223.218 20.6222C221.841 20.6222 220.619 20.9418 219.554 21.581C218.502 22.206 217.679 23.0511 217.082 24.1165C216.485 25.1676 216.18 26.3395 216.166 27.6321V32.9801C216.166 34.5994 216.464 35.9986 217.061 37.1776C217.672 38.3565 218.531 39.2656 219.639 39.9048C220.747 40.544 222.061 40.8636 223.581 40.8636C224.589 40.8636 225.512 40.7216 226.35 40.4375C227.189 40.1534 227.906 39.7273 228.502 39.1591C229.099 38.5909 229.554 37.8949 229.866 37.071L238.261 37.625C237.835 39.642 236.961 41.4034 235.64 42.9091C234.333 44.4006 232.643 45.5653 230.569 46.4034C228.51 47.2273 226.13 47.6392 223.431 47.6392ZM253.453 28.0795V47H244.376V14.2727H253.027V20.0469H253.41C254.135 18.1435 255.349 16.6378 257.054 15.5298C258.758 14.4077 260.825 13.8466 263.254 13.8466C265.527 13.8466 267.508 14.3437 269.199 15.3381C270.889 16.3324 272.203 17.7528 273.14 19.5994C274.078 21.4318 274.547 23.6193 274.547 26.1619V47H265.47V27.7812C265.484 25.7784 264.973 24.2159 263.936 23.0938C262.899 21.9574 261.471 21.3892 259.653 21.3892C258.431 21.3892 257.352 21.652 256.414 22.1776C255.491 22.7031 254.767 23.4702 254.241 24.4787C253.73 25.473 253.467 26.6733 253.453 28.0795ZM299.108 14.2727V21.0909H279.399V14.2727H299.108ZM283.874 6.43182H292.95V36.9432C292.95 37.7812 293.078 38.4347 293.334 38.9034C293.589 39.358 293.945 39.6776 294.399 39.8622C294.868 40.0469 295.408 40.1392 296.018 40.1392C296.445 40.1392 296.871 40.1037 297.297 40.0327C297.723 39.9474 298.05 39.8835 298.277 39.8409L299.705 46.5952C299.25 46.7372 298.611 46.9006 297.787 47.0852C296.963 47.2841 295.962 47.4048 294.783 47.4474C292.595 47.5327 290.678 47.2415 289.03 46.5739C287.396 45.9062 286.125 44.8693 285.216 43.4631C284.307 42.0568 283.859 40.2812 283.874 38.1364V6.43182ZM25.4645 88.9134C25.294 87.1946 24.5625 85.8594 23.2699 84.9077C21.9773 83.956 20.223 83.4801 18.0071 83.4801C16.5014 83.4801 15.2301 83.6932 14.1932 84.1193C13.1563 84.5312 12.3608 85.1065 11.8068 85.8452C11.267 86.5838 10.9972 87.4219 10.9972 88.3594C10.9688 89.1406 11.1321 89.8224 11.4872 90.4048C11.8565 90.9872 12.3608 91.4915 13 91.9176C13.6392 92.3295 14.3778 92.6918 15.2159 93.0043C16.054 93.3026 16.9489 93.5582 17.9006 93.7713L21.821 94.7088C23.7244 95.1349 25.4716 95.7031 27.0625 96.4134C28.6534 97.1236 30.0313 97.9972 31.196 99.0341C32.3608 100.071 33.2628 101.293 33.902 102.699C34.5554 104.105 34.8892 105.717 34.9034 107.536C34.8892 110.206 34.2074 112.521 32.858 114.482C31.5227 116.428 29.5909 117.94 27.0625 119.02C24.5483 120.085 21.5156 120.618 17.9645 120.618C14.4418 120.618 11.3736 120.078 8.75994 118.999C6.16051 117.919 4.12926 116.321 2.66619 114.205C1.21733 112.074 0.457386 109.439 0.386364 106.3H9.31392C9.41335 107.763 9.83239 108.984 10.571 109.964C11.3239 110.93 12.3253 111.662 13.5753 112.159C14.8395 112.642 16.267 112.884 17.858 112.884C19.4205 112.884 20.777 112.656 21.9276 112.202C23.0923 111.747 23.9943 111.115 24.6335 110.305C25.2727 109.496 25.5923 108.565 25.5923 107.514C25.5923 106.534 25.3011 105.71 24.7188 105.043C24.1506 104.375 23.3125 103.807 22.2045 103.338C21.1108 102.869 19.7685 102.443 18.1776 102.06L13.4261 100.866C9.74716 99.9716 6.84233 98.5724 4.71165 96.669C2.58097 94.7656 1.52273 92.2017 1.53693 88.9773C1.52273 86.3352 2.22585 84.027 3.64631 82.0526C5.08097 80.0781 7.0483 78.5369 9.5483 77.429C12.0483 76.321 14.8892 75.767 18.071 75.767C21.3097 75.767 24.1364 76.321 26.5511 77.429C28.9801 78.5369 30.8693 80.0781 32.2188 82.0526C33.5682 84.027 34.2642 86.3139 34.3068 88.9134H25.4645ZM55.8533 120.639C52.4869 120.639 49.5891 119.957 47.1602 118.594C44.7454 117.216 42.8846 115.27 41.5778 112.756C40.271 110.227 39.6175 107.237 39.6175 103.786C39.6175 100.419 40.271 97.4645 41.5778 94.9219C42.8846 92.3793 44.7241 90.3977 47.0962 88.9773C49.4826 87.5568 52.2809 86.8466 55.4911 86.8466C57.6502 86.8466 59.6602 87.1946 61.521 87.8906C63.396 88.5724 65.0295 89.6023 66.4215 90.9801C67.8278 92.358 68.9215 94.0909 69.7028 96.179C70.484 98.2528 70.8746 100.682 70.8746 103.466V105.959H43.2397V100.334H62.3306C62.3306 99.027 62.0465 97.8693 61.4783 96.8608C60.9102 95.8523 60.1218 95.0639 59.1133 94.4957C58.119 93.9134 56.9613 93.6222 55.6403 93.6222C54.2624 93.6222 53.0408 93.9418 51.9755 94.581C50.9244 95.206 50.1005 96.0511 49.5039 97.1165C48.9073 98.1676 48.6019 99.3395 48.5877 100.632V105.98C48.5877 107.599 48.886 108.999 49.4826 110.178C50.0934 111.357 50.9528 112.266 52.0607 112.905C53.1687 113.544 54.4826 113.864 56.0025 113.864C57.011 113.864 57.9343 113.722 58.7724 113.438C59.6104 113.153 60.3278 112.727 60.9244 112.159C61.521 111.591 61.9755 110.895 62.288 110.071L70.6829 110.625C70.2567 112.642 69.3832 114.403 68.0621 115.909C66.7553 117.401 65.065 118.565 62.9911 119.403C60.9315 120.227 58.5522 120.639 55.8533 120.639ZM85.8746 101.08V120H76.7979V87.2727H85.4485V93.0469H85.832C86.5565 91.1435 87.771 89.6378 89.4755 88.5298C91.18 87.4077 93.2468 86.8466 95.6758 86.8466C97.9485 86.8466 99.93 87.3438 101.62 88.3381C103.311 89.3324 104.625 90.7528 105.562 92.5994C106.5 94.4318 106.968 96.6193 106.968 99.1619V120H97.8917V100.781C97.9059 98.7784 97.3945 97.2159 96.3576 96.0938C95.3207 94.9574 93.8931 94.3892 92.0749 94.3892C90.8533 94.3892 89.7738 94.652 88.8363 95.1776C87.913 95.7031 87.1886 96.4702 86.663 97.4787C86.1516 98.473 85.8888 99.6733 85.8746 101.08ZM131.53 87.2727V94.0909H111.821V87.2727H131.53ZM116.295 79.4318H125.372V109.943C125.372 110.781 125.5 111.435 125.756 111.903C126.011 112.358 126.366 112.678 126.821 112.862C127.29 113.047 127.83 113.139 128.44 113.139C128.866 113.139 129.293 113.104 129.719 113.033C130.145 112.947 130.472 112.884 130.699 112.841L132.126 119.595C131.672 119.737 131.033 119.901 130.209 120.085C129.385 120.284 128.384 120.405 127.205 120.447C125.017 120.533 123.099 120.241 121.452 119.574C119.818 118.906 118.547 117.869 117.638 116.463C116.729 115.057 116.281 113.281 116.295 111.136V79.4318ZM137.442 120V87.2727H146.519V120H137.442ZM142.002 83.054C140.653 83.054 139.495 82.6065 138.529 81.7116C137.577 80.8026 137.102 79.7159 137.102 78.4517C137.102 77.2017 137.577 76.1293 138.529 75.2344C139.495 74.3253 140.653 73.8707 142.002 73.8707C143.352 73.8707 144.502 74.3253 145.454 75.2344C146.42 76.1293 146.903 77.2017 146.903 78.4517C146.903 79.7159 146.42 80.8026 145.454 81.7116C144.502 82.6065 143.352 83.054 142.002 83.054ZM162.867 101.08V120H153.79V87.2727H162.441V93.0469H162.824C163.549 91.1435 164.763 89.6378 166.468 88.5298C168.172 87.4077 170.239 86.8466 172.668 86.8466C174.941 86.8466 176.922 87.3438 178.613 88.3381C180.303 89.3324 181.617 90.7528 182.554 92.5994C183.492 94.4318 183.961 96.6193 183.961 99.1619V120H174.884V100.781C174.898 98.7784 174.387 97.2159 173.35 96.0938C172.313 94.9574 170.885 94.3892 169.067 94.3892C167.846 94.3892 166.766 94.652 165.828 95.1776C164.905 95.7031 164.181 96.4702 163.655 97.4787C163.144 98.473 162.881 99.6733 162.867 101.08ZM206.029 120.639C202.663 120.639 199.765 119.957 197.336 118.594C194.921 117.216 193.06 115.27 191.754 112.756C190.447 110.227 189.793 107.237 189.793 103.786C189.793 100.419 190.447 97.4645 191.754 94.9219C193.06 92.3793 194.9 90.3977 197.272 88.9773C199.658 87.5568 202.457 86.8466 205.667 86.8466C207.826 86.8466 209.836 87.1946 211.697 87.8906C213.572 88.5724 215.205 89.6023 216.597 90.9801C218.004 92.358 219.097 94.0909 219.879 96.179C220.66 98.2528 221.05 100.682 221.05 103.466V105.959H193.415V100.334H212.506C212.506 99.027 212.222 97.8693 211.654 96.8608C211.086 95.8523 210.298 95.0639 209.289 94.4957C208.295 93.9134 207.137 93.6222 205.816 93.6222C204.438 93.6222 203.217 93.9418 202.151 94.581C201.1 95.206 200.276 96.0511 199.68 97.1165C199.083 98.1676 198.778 99.3395 198.763 100.632V105.98C198.763 107.599 199.062 108.999 199.658 110.178C200.269 111.357 201.129 112.266 202.237 112.905C203.344 113.544 204.658 113.864 206.178 113.864C207.187 113.864 208.11 113.722 208.948 113.438C209.786 113.153 210.504 112.727 211.1 112.159C211.697 111.591 212.151 110.895 212.464 110.071L220.859 110.625C220.433 112.642 219.559 114.403 218.238 115.909C216.931 117.401 215.241 118.565 213.167 119.403C211.107 120.227 208.728 120.639 206.029 120.639ZM236.05 76.3636V120H226.974V76.3636H236.05ZM270.551 96.6051L262.242 97.1165C262.1 96.4062 261.794 95.767 261.326 95.1989C260.857 94.6165 260.239 94.1548 259.472 93.8139C258.719 93.4588 257.817 93.2812 256.766 93.2812C255.36 93.2812 254.174 93.5795 253.208 94.1761C252.242 94.7585 251.759 95.5398 251.759 96.5199C251.759 97.3011 252.071 97.9616 252.696 98.5014C253.321 99.0412 254.394 99.4744 255.914 99.8011L261.837 100.994C265.019 101.648 267.391 102.699 268.953 104.148C270.516 105.597 271.297 107.5 271.297 109.858C271.297 112.003 270.665 113.885 269.401 115.504C268.151 117.124 266.432 118.388 264.245 119.297C262.071 120.192 259.564 120.639 256.723 120.639C252.391 120.639 248.939 119.737 246.368 117.933C243.811 116.115 242.313 113.643 241.873 110.518L250.8 110.05C251.07 111.371 251.723 112.379 252.76 113.075C253.797 113.757 255.125 114.098 256.745 114.098C258.336 114.098 259.614 113.793 260.58 113.182C261.56 112.557 262.057 111.754 262.071 110.774C262.057 109.95 261.709 109.276 261.027 108.75C260.346 108.21 259.294 107.798 257.874 107.514L252.206 106.385C249.01 105.746 246.631 104.638 245.069 103.061C243.52 101.484 242.746 99.4744 242.746 97.0312C242.746 94.929 243.314 93.1179 244.451 91.598C245.601 90.0781 247.213 88.9062 249.287 88.0824C251.375 87.2585 253.819 86.8466 256.617 86.8466C260.75 86.8466 264.003 87.7202 266.375 89.4673C268.762 91.2145 270.154 93.5937 270.551 96.6051Z" fill="#943309"/>
<path d="M25.4645 15.9134L24.4694 16.012L24.5588 16.9134H25.4645V15.9134ZM14.1932 11.1193L14.5624 12.0487L14.5733 12.0443L14.1932 11.1193ZM11.8068 12.8452L11.0068 12.2451L10.9994 12.2552L11.8068 12.8452ZM10.9972 15.3594L11.9965 15.3957L11.9972 15.3776V15.3594H10.9972ZM11.4872 17.4048L10.6334 17.9254L10.638 17.9329L10.6427 17.9404L11.4872 17.4048ZM13 18.9176L12.4453 19.7497L12.4518 19.754L12.4583 19.7582L13 18.9176ZM15.2159 20.0043L14.8665 20.9412L14.8735 20.9439L14.8806 20.9464L15.2159 20.0043ZM17.9006 20.7713L18.1331 19.7987L18.1261 19.797L18.119 19.7955L17.9006 20.7713ZM21.821 21.7088L21.5885 22.6814L21.5955 22.6831L21.6026 22.6847L21.821 21.7088ZM27.0625 23.4134L26.6548 24.3265H26.6549L27.0625 23.4134ZM31.196 26.0341L31.861 25.2872L31.196 26.0341ZM33.902 29.6989L32.9916 30.1127L32.9951 30.1202L33.902 29.6989ZM34.9034 34.5355L35.9035 34.5408L35.9034 34.5277L34.9034 34.5355ZM32.858 41.4815L32.0343 40.9145L32.0334 40.9158L32.858 41.4815ZM27.0625 46.0199L27.4527 46.9406L27.4552 46.9396L27.0625 46.0199ZM8.75994 45.9986L8.3764 46.9221L8.37818 46.9228L8.75994 45.9986ZM2.66619 41.2045L1.83924 41.7669L1.8436 41.7732L2.66619 41.2045ZM0.386364 33.2997V32.2997H-0.636517L-0.613381 33.3223L0.386364 33.2997ZM9.31392 33.2997L10.3116 33.2319L10.2483 32.2997H9.31392V33.2997ZM10.571 36.9645L9.77241 37.5663L9.7773 37.5728L9.7823 37.5792L10.571 36.9645ZM13.5753 39.1591L13.2057 40.0884L13.2184 40.0932L13.5753 39.1591ZM21.9276 39.2017L21.564 38.2701L21.5601 38.2717L21.9276 39.2017ZM24.6335 37.3054L25.4184 37.925L24.6335 37.3054ZM24.7188 32.0426L23.9572 32.6908L23.9652 32.7L24.7188 32.0426ZM22.2045 30.3381L21.8106 31.2572L21.8149 31.259L22.2045 30.3381ZM18.1776 29.0597L17.934 30.0296L17.9432 30.0318L18.1776 29.0597ZM13.4261 27.8665L13.6697 26.8966L13.6625 26.8948L13.4261 27.8665ZM4.71165 23.669L4.04543 24.4148L4.71165 23.669ZM1.53693 15.9773L2.53697 15.9817L2.53692 15.9719L1.53693 15.9773ZM3.64631 9.05256L2.83731 8.46473L2.83455 8.46856L3.64631 9.05256ZM26.5511 4.42898L26.1341 5.33788L26.1361 5.33879L26.5511 4.42898ZM32.2188 9.05256L31.3932 9.61682L32.2188 9.05256ZM34.3068 15.9134V16.9134H35.3233L35.3067 15.897L34.3068 15.9134ZM26.4596 15.8147C26.2636 13.8381 25.4023 12.2359 23.8628 11.1024L22.677 12.7129C23.7227 13.4829 24.3245 14.5511 24.4694 16.012L26.4596 15.8147ZM23.8628 11.1024C22.3439 9.98406 20.3569 9.48011 18.0071 9.48011V11.4801C20.0891 11.4801 21.6107 11.9279 22.677 12.7129L23.8628 11.1024ZM18.0071 9.48011C16.4132 9.48011 15.0043 9.70484 13.8131 10.1944L14.5733 12.0443C15.456 11.6815 16.5897 11.4801 18.0071 11.4801V9.48011ZM13.824 10.19C12.6517 10.6557 11.6924 11.3311 11.0068 12.2452L12.6068 13.4452C13.0292 12.882 13.6608 12.4068 14.5624 12.0487L13.824 10.19ZM10.9994 12.2552C10.3312 13.1695 9.99716 14.2154 9.99716 15.3594H11.9972C11.9972 14.6284 12.2029 13.9981 12.6142 13.4352L10.9994 12.2552ZM9.99782 15.323C9.96336 16.2708 10.1619 17.1522 10.6334 17.9254L12.341 16.8842C12.1023 16.4927 11.9741 16.0105 11.9965 15.3957L9.99782 15.323ZM10.6427 17.9404C11.095 18.6536 11.7031 19.2549 12.4453 19.7497L13.5547 18.0856C13.0184 17.7281 12.6181 17.3209 12.3317 16.8693L10.6427 17.9404ZM12.4583 19.7582C13.1674 20.2152 13.9725 20.6079 14.8665 20.9412L15.5653 19.0673C14.7832 18.7756 14.111 18.4439 13.5417 18.077L12.4583 19.7582ZM14.8806 20.9464C15.7603 21.2595 16.6945 21.5261 17.6821 21.7472L18.119 19.7955C17.2032 19.5904 16.3476 19.3456 15.5512 19.0622L14.8806 20.9464ZM17.668 21.7439L21.5885 22.6814L22.0536 20.7362L18.1331 19.7987L17.668 21.7439ZM21.6026 22.6847C23.4486 23.0979 25.1315 23.6464 26.6548 24.3265L27.4702 22.5002C25.8117 21.7598 24.0003 21.1719 22.0395 20.733L21.6026 22.6847ZM26.6549 24.3265C28.1628 24.9997 29.4514 25.8198 30.5311 26.781L31.861 25.2872C30.6111 24.1745 29.144 23.2475 27.4701 22.5002L26.6549 24.3265ZM30.5311 26.781C31.5928 27.7261 32.4107 28.8346 32.9916 30.1127L34.8124 29.2851C34.1149 27.7506 33.1288 26.4159 31.861 25.2872L30.5311 26.781ZM32.9951 30.1202C33.5788 31.3764 33.8902 32.8436 33.9034 34.5433L35.9034 34.5277C35.8882 32.591 35.532 30.8338 34.8089 29.2775L32.9951 30.1202ZM33.9034 34.5302C33.8902 37.0254 33.2563 39.1394 32.0343 40.9145L33.6816 42.0486C35.1585 39.9033 35.8883 37.3865 35.9034 34.5408L33.9034 34.5302ZM32.0334 40.9158C30.8223 42.6808 29.0529 44.0827 26.6698 45.1002L27.4552 46.9396C30.1289 45.798 32.2231 44.1743 33.6825 42.0473L32.0334 40.9158ZM26.6723 45.0991C24.3126 46.099 21.42 46.6179 17.9645 46.6179V48.6179C21.6112 48.6179 24.784 48.0714 27.4527 46.9406L26.6723 45.0991ZM17.9645 46.6179C14.5416 46.6179 11.6085 46.0932 9.1417 45.0743L8.37818 46.9228C11.1387 48.063 14.3419 48.6179 17.9645 48.6179V46.6179ZM9.14348 45.0751C6.70412 44.062 4.83242 42.5796 3.48878 40.6359L1.8436 41.7732C3.4261 44.0624 5.6169 45.7761 8.3764 46.9221L9.14348 45.0751ZM3.49312 40.6422C2.17433 38.7028 1.45373 36.266 1.38611 33.2771L-0.613381 33.3223C-0.538956 36.6119 0.260331 39.4449 1.83927 41.7669L3.49312 40.6422ZM0.386364 34.2997H9.31392V32.2997H0.386364V34.2997ZM8.31622 33.3675C8.42621 34.9859 8.89591 36.4033 9.77241 37.5663L11.3696 36.3626C10.7689 35.5655 10.4005 34.5397 10.3116 33.2319L8.31622 33.3675ZM9.7823 37.5792C10.655 38.6989 11.8073 39.5321 13.2057 40.0883L13.9449 38.2299C12.8433 37.7918 11.9927 37.1619 11.3597 36.3497L9.7823 37.5792ZM13.2184 40.0932C14.6147 40.6266 16.1661 40.8835 17.858 40.8835V38.8835C16.368 38.8835 15.0643 38.6574 13.9322 38.2249L13.2184 40.0932ZM17.858 40.8835C19.5145 40.8835 21.0011 40.6429 22.295 40.1318L21.5601 38.2717C20.5529 38.6696 19.3264 38.8835 17.858 38.8835V40.8835ZM22.2911 40.1333C23.5865 39.6278 24.6478 38.9012 25.4184 37.925L23.8486 36.6858C23.3409 37.3289 22.5982 37.8665 21.564 38.2701L22.2911 40.1333ZM25.4184 37.925C26.1998 36.9353 26.5923 35.7856 26.5923 34.5142H24.5923C24.5923 35.3451 24.3457 36.0562 23.8486 36.6858L25.4184 37.925ZM26.5923 34.5142C26.5923 33.32 26.2309 32.2548 25.4723 31.3852L23.9652 32.7C24.3714 33.1657 24.5923 33.7482 24.5923 34.5142H26.5923ZM25.4803 31.3945C24.7807 30.5724 23.7951 29.9252 22.5942 29.4171L21.8149 31.259C22.8299 31.6885 23.5205 32.1776 23.9572 32.6907L25.4803 31.3945ZM22.5985 29.4189C21.438 28.9216 20.0387 28.4797 18.4119 28.0875L17.9432 30.0318C19.4982 30.4067 20.7836 30.817 21.8106 31.2572L22.5985 29.4189ZM18.4211 28.0898L13.6697 26.8966L13.1826 28.8364L17.934 30.0295L18.4211 28.0898ZM13.6625 26.8948C10.0932 26.0266 7.35264 24.6874 5.37786 22.9233L4.04543 24.4148C6.33202 26.4575 9.40113 27.9166 13.1898 28.8381L13.6625 26.8948ZM5.37786 22.9233C3.48945 21.2363 2.5238 18.9608 2.53692 15.9817L0.536942 15.9729C0.521656 19.4426 1.67248 22.295 4.04543 24.4148L5.37786 22.9233ZM2.53692 15.9719C2.52375 13.522 3.17186 11.4244 4.45806 9.63655L2.83455 8.46856C1.27984 10.6296 0.521708 13.1484 0.536947 15.9826L2.53692 15.9719ZM4.45529 9.64038C5.7744 7.82498 7.59465 6.3886 9.95347 5.34322L9.14312 3.51474C6.50194 4.68526 4.38753 6.33127 2.83732 8.46473L4.45529 9.64038ZM9.95347 5.34322C12.3067 4.30031 15.0061 3.76704 18.071 3.76704V1.76704C14.7723 1.76704 11.7899 2.34173 9.14312 3.51474L9.95347 5.34322ZM18.071 3.76704C21.1966 3.76704 23.8756 4.30161 26.1341 5.33787L26.9682 3.52008C24.3971 2.34044 21.4227 1.76704 18.071 1.76704V3.76704ZM26.1361 5.33879C28.4191 6.38016 30.1582 7.80984 31.3932 9.61682L33.0443 8.4883C31.5805 6.34641 29.5411 4.6937 26.9661 3.51916L26.1361 5.33879ZM31.3932 9.61682C32.6225 11.4155 33.2673 13.5083 33.307 15.9297L35.3067 15.897C35.2612 13.1196 34.5139 10.6384 33.0443 8.4883L31.3932 9.61682ZM34.3068 14.9134H25.4645V16.9134H34.3068V14.9134ZM47.1602 45.5938L46.6646 46.4623L46.6706 46.4657L47.1602 45.5938ZM41.5778 39.7557L40.6894 40.2148L40.6905 40.2169L41.5778 39.7557ZM41.5778 21.9219L40.6884 21.4648L41.5778 21.9219ZM47.0962 15.9773L46.5848 15.118L46.5825 15.1193L47.0962 15.9773ZM61.521 14.8906L61.1706 15.8273L61.1792 15.8304L61.521 14.8906ZM66.4215 17.9801L65.718 18.6908L65.7217 18.6944L66.4215 17.9801ZM69.7028 23.179L68.7662 23.5294L68.767 23.5315L69.7028 23.179ZM70.8746 32.9588V33.9588H71.8746V32.9588H70.8746ZM43.2397 32.9588H42.2397V33.9588H43.2397V32.9588ZM43.2397 27.3338V26.3338H42.2397V27.3338H43.2397ZM62.3306 27.3338V28.3338H63.3306V27.3338H62.3306ZM61.4783 23.8608L60.6071 24.3516L61.4783 23.8608ZM59.1133 21.4957L58.6079 22.3586L58.6151 22.3629L58.6224 22.367L59.1133 21.4957ZM51.9755 21.581L52.4866 22.4405L52.49 22.4385L51.9755 21.581ZM49.5039 24.1165L50.3736 24.6101L50.3764 24.6051L49.5039 24.1165ZM48.5877 27.6321L47.5877 27.6211V27.6321H48.5877ZM49.4826 37.1776L48.5903 37.6291L48.5947 37.6376L49.4826 37.1776ZM58.7724 40.4375L58.4513 39.4904L58.7724 40.4375ZM60.9244 39.1591L60.2347 38.435H60.2347L60.9244 39.1591ZM62.288 37.071L62.3538 36.0732L61.6154 36.0245L61.353 36.7164L62.288 37.071ZM70.6829 37.625L71.6613 37.8317L71.8997 36.7031L70.7487 36.6272L70.6829 37.625ZM68.0621 42.9091L67.3104 42.2496L67.31 42.2501L68.0621 42.9091ZM62.9911 46.4034L63.3625 47.3319L63.3658 47.3306L62.9911 46.4034ZM55.8533 46.6392C52.6227 46.6392 49.9009 45.9856 47.6497 44.7218L46.6706 46.4657C49.2774 47.9292 52.351 48.6392 55.8533 48.6392V46.6392ZM47.6557 44.7252C45.4114 43.4446 43.685 41.6415 42.4651 39.2945L40.6905 40.2169C42.0842 42.8982 44.0794 44.9872 46.6646 46.4623L47.6557 44.7252ZM42.4661 39.2965C41.2467 36.9372 40.6175 34.1111 40.6175 30.7855H38.6175C38.6175 34.3634 39.2952 37.5174 40.6894 40.2148L42.4661 39.2965ZM40.6175 30.7855C40.6175 27.5499 41.2449 24.7571 42.4672 22.379L40.6884 21.4648C39.297 24.1719 38.6175 27.2882 38.6175 30.7855H40.6175ZM42.4672 22.379C43.6917 19.9965 45.4036 18.1564 47.61 16.8352L46.5825 15.1193C44.0445 16.6391 42.0775 18.762 40.6884 21.4648L42.4672 22.379ZM47.6077 16.8366C49.8166 15.5218 52.4324 14.8466 55.4911 14.8466V12.8466C52.1293 12.8466 49.1486 13.5919 46.5848 15.118L47.6077 16.8366ZM55.4911 14.8466C57.541 14.8466 59.4312 15.1766 61.1706 15.8272L61.8713 13.954C59.8891 13.2126 57.7594 12.8466 55.4911 12.8466V14.8466ZM61.1792 15.8304C62.9211 16.4638 64.4306 17.4165 65.718 18.6908L67.125 17.2694C65.6284 15.788 63.8708 14.681 61.8627 13.9508L61.1792 15.8304ZM65.7217 18.6944C67.0103 19.957 68.0294 21.5603 68.7662 23.5294L70.6394 22.8286C69.8136 20.6215 68.6453 18.7589 67.1214 17.2658L65.7217 18.6944ZM68.767 23.5315C69.4965 25.4679 69.8746 27.7726 69.8746 30.4659H71.8746C71.8746 27.591 71.4716 25.0377 70.6386 22.8264L68.767 23.5315ZM69.8746 30.4659V32.9588H71.8746V30.4659H69.8746ZM70.8746 31.9588H43.2397V33.9588H70.8746V31.9588ZM44.2397 32.9588V27.3338H42.2397V32.9588H44.2397ZM43.2397 28.3338H62.3306V26.3338H43.2397V28.3338ZM63.3306 27.3338C63.3306 25.8776 63.0126 24.5468 62.3496 23.37L60.6071 24.3516C61.0804 25.1918 61.3306 26.1764 61.3306 27.3338H63.3306ZM62.3496 23.37C61.6917 22.2023 60.7718 21.2823 59.6041 20.6245L58.6224 22.367C59.4718 22.8455 60.1286 23.5023 60.6071 24.3516L62.3496 23.37ZM59.6187 20.6329C58.4498 19.9482 57.1125 19.6222 55.6403 19.6222V21.6222C56.8101 21.6222 57.7882 21.8785 58.6079 22.3586L59.6187 20.6329ZM55.6403 19.6222C54.1015 19.6222 52.6983 19.9811 51.461 20.7235L52.49 22.4385C53.3834 21.9024 54.4234 21.6222 55.6403 21.6222V19.6222ZM51.4644 20.7214C50.2626 21.436 49.3139 22.409 48.6314 23.6279L50.3764 24.6051C50.8871 23.6932 51.5862 22.9759 52.4866 22.4405L51.4644 20.7214ZM48.6342 23.6229C47.9483 24.8315 47.6037 26.1713 47.5878 27.6211L49.5877 27.6431C49.6001 26.5076 49.8664 25.5038 50.3736 24.6101L48.6342 23.6229ZM47.5877 27.6321V32.9801H49.5877V27.6321H47.5877ZM47.5877 32.9801C47.5877 34.7215 47.9087 36.2821 48.5903 37.6291L50.3749 36.726C49.8633 35.7151 49.5877 34.4774 49.5877 32.9801H47.5877ZM48.5947 37.6376C49.2899 38.9794 50.281 40.0325 51.561 40.771L52.5604 39.0386C51.6246 38.4987 50.8969 37.7336 50.3705 36.7176L48.5947 37.6376ZM51.561 40.771C52.8473 41.5131 54.3403 41.8636 56.0025 41.8636V39.8636C54.6249 39.8636 53.4901 39.575 52.5604 39.0386L51.561 40.771ZM56.0025 41.8636C57.1052 41.8636 58.1386 41.7082 59.0934 41.3846L58.4513 39.4904C57.73 39.735 56.9168 39.8636 56.0025 39.8636V41.8636ZM59.0934 41.3846C60.0587 41.0573 60.9046 40.5589 61.614 39.8832L60.2347 38.435C59.751 38.8956 59.1622 39.2495 58.4513 39.4904L59.0934 41.3846ZM61.614 39.8832C62.3265 39.2047 62.8612 38.3796 63.223 37.4257L61.353 36.7164C61.0898 37.4102 60.7155 37.9771 60.2347 38.435L61.614 39.8832ZM62.2222 38.0689L70.617 38.6228L70.7487 36.6272L62.3538 36.0732L62.2222 38.0689ZM69.7045 37.4183C69.3127 39.2726 68.5149 40.8768 67.3104 42.2496L68.8138 43.5686C70.2514 41.9301 71.2008 40.0115 71.6613 37.8317L69.7045 37.4183ZM67.31 42.2501C66.1188 43.6096 64.564 44.6892 62.6164 45.4763L63.3658 47.3306C65.566 46.4414 67.3918 45.1916 68.8143 43.5681L67.31 42.2501ZM62.6197 45.4749C60.7008 46.2425 58.4518 46.6392 55.8533 46.6392V48.6392C58.6526 48.6392 61.1622 48.212 63.3625 47.3319L62.6197 45.4749ZM85.8746 28.0795L84.8746 28.0694V28.0795H85.8746ZM85.8746 47V48H86.8746V47H85.8746ZM76.7979 47H75.7979V48H76.7979V47ZM76.7979 14.2727V13.2727H75.7979V14.2727H76.7979ZM85.4485 14.2727H86.4485V13.2727H85.4485V14.2727ZM85.4485 20.0469H84.4485V21.0469H85.4485V20.0469ZM85.832 20.0469V21.0469H86.5214L86.7666 20.4026L85.832 20.0469ZM89.4755 15.5298L90.0205 16.3683L90.0254 16.3651L89.4755 15.5298ZM101.62 15.3381L102.127 14.4761L101.62 15.3381ZM105.562 19.5994L104.67 20.0521L104.672 20.0549L105.562 19.5994ZM106.968 47V48H107.968V47H106.968ZM97.8917 47H96.8917V48H97.8917V47ZM97.8917 27.7812L96.8917 27.7742V27.7812H97.8917ZM96.3576 23.0938L95.6189 23.7678L95.6232 23.7724L96.3576 23.0938ZM88.8363 22.1776L88.3473 21.3053L88.3416 21.3085L88.8363 22.1776ZM86.663 24.4787L85.7762 24.0165L85.7737 24.0213L86.663 24.4787ZM84.8746 28.0795V47H86.8746V28.0795H84.8746ZM85.8746 46H76.7979V48H85.8746V46ZM77.7979 47V14.2727H75.7979V47H77.7979ZM76.7979 15.2727H85.4485V13.2727H76.7979V15.2727ZM84.4485 14.2727V20.0469H86.4485V14.2727H84.4485ZM85.4485 21.0469H85.832V19.0469H85.4485V21.0469ZM86.7666 20.4026C87.4158 18.6969 88.494 17.3605 90.0205 16.3683L88.9305 14.6914C87.0479 15.9151 85.6971 17.59 84.8974 19.6912L86.7666 20.4026ZM90.0254 16.3651C91.5377 15.3694 93.4045 14.8466 95.6758 14.8466V12.8466C93.0891 12.8466 90.8223 13.4459 88.9256 14.6946L90.0254 16.3651ZM95.6758 14.8466C97.7989 14.8466 99.5997 15.3096 101.113 16.2L102.127 14.4761C100.26 13.3779 98.0981 12.8466 95.6758 12.8466V14.8466ZM101.113 16.2C102.63 17.0919 103.814 18.3659 104.67 20.0521L106.454 19.1467C105.435 17.1398 103.992 15.5729 102.127 14.4761L101.113 16.2ZM104.672 20.0549C105.522 21.717 105.968 23.7411 105.968 26.1619H107.968C107.968 23.4976 107.477 21.1467 106.452 19.144L104.672 20.0549ZM105.968 26.1619V47H107.968V26.1619H105.968ZM106.968 46H97.8917V48H106.968V46ZM98.8917 47V27.7812H96.8917V47H98.8917ZM98.8917 27.7883C98.9071 25.6128 98.3496 23.776 97.092 22.4151L95.6232 23.7724C96.4395 24.6558 96.9047 25.9441 96.8917 27.7742L98.8917 27.7883ZM97.0963 22.4197C95.8353 21.0378 94.1184 20.3892 92.0749 20.3892V22.3892C93.6678 22.3892 94.8061 22.877 95.6189 23.7678L97.0963 22.4197ZM92.0749 20.3892C90.7058 20.3892 89.4536 20.6851 88.3473 21.3053L89.3253 23.0498C90.094 22.6189 91.0008 22.3892 92.0749 22.3892V20.3892ZM88.3416 21.3085C87.2393 21.936 86.3841 22.8501 85.7762 24.0166L87.5498 24.9408C87.9931 24.0903 88.5867 23.4703 89.331 23.0466L88.3416 21.3085ZM85.7737 24.0213C85.1752 25.1851 84.8901 26.5467 84.8747 28.0694L86.8746 28.0896C86.8876 26.7999 87.1281 25.7609 87.5523 24.936L85.7737 24.0213ZM131.53 14.2727H132.53V13.2727H131.53V14.2727ZM131.53 21.0909V22.0909H132.53V21.0909H131.53ZM111.821 21.0909H110.821V22.0909H111.821V21.0909ZM111.821 14.2727V13.2727H110.821V14.2727H111.821ZM116.295 6.43182V5.43182H115.295V6.43182H116.295ZM125.372 6.43182H126.372V5.43182H125.372V6.43182ZM125.756 38.9034L124.878 39.3823L124.884 39.3937L125.756 38.9034ZM126.821 39.8622L126.445 40.7887L126.454 40.7926L126.821 39.8622ZM129.719 40.0327L129.883 41.0191L129.899 41.0164L129.915 41.0133L129.719 40.0327ZM130.699 39.8409L131.677 39.6341L131.475 38.6779L130.515 38.858L130.699 39.8409ZM132.126 46.5952L132.425 47.5497L133.293 47.2783L133.105 46.3884L132.126 46.5952ZM130.209 47.0852L129.99 46.1094L129.982 46.1112L129.974 46.1131L130.209 47.0852ZM127.205 47.4474L127.168 46.4481L127.166 46.4482L127.205 47.4474ZM121.452 46.5739L121.073 47.4995L121.076 47.5007L121.452 46.5739ZM117.638 43.4631L118.478 42.9202L117.638 43.4631ZM116.295 38.1364L117.295 38.143V38.1364H116.295ZM130.53 14.2727V21.0909H132.53V14.2727H130.53ZM131.53 20.0909H111.821V22.0909H131.53V20.0909ZM112.821 21.0909V14.2727H110.821V21.0909H112.821ZM111.821 15.2727H131.53V13.2727H111.821V15.2727ZM116.295 7.43182H125.372V5.43182H116.295V7.43182ZM124.372 6.43182V36.9432H126.372V6.43182H124.372ZM124.372 36.9432C124.372 37.8623 124.509 38.706 124.878 39.3823L126.634 38.4246C126.491 38.1633 126.372 37.7002 126.372 36.9432H124.372ZM124.884 39.3937C125.243 40.0321 125.767 40.5133 126.445 40.7887L127.197 38.9357C126.966 38.8419 126.779 38.6838 126.627 38.4131L124.884 39.3937ZM126.454 40.7926C127.062 41.0319 127.73 41.1392 128.44 41.1392V39.1392C127.929 39.1392 127.518 39.0619 127.188 38.9318L126.454 40.7926ZM128.44 41.1392C128.922 41.1392 129.403 41.099 129.883 41.0191L129.554 39.0463C129.182 39.1084 128.811 39.1392 128.44 39.1392V41.1392ZM129.915 41.0133C130.34 40.9283 130.662 40.8653 130.883 40.8238L130.515 38.858C130.281 38.9018 129.95 38.9666 129.523 39.0521L129.915 41.0133ZM129.72 40.0477L131.148 46.802L133.105 46.3884L131.677 39.6341L129.72 40.0477ZM131.828 45.6407C131.412 45.7706 130.804 45.927 129.99 46.1094L130.428 48.061C131.261 47.8742 131.931 47.7038 132.425 47.5497L131.828 45.6407ZM129.974 46.1131C129.235 46.2915 128.304 46.407 127.168 46.4481L127.241 48.4468C128.463 48.4026 129.535 48.2766 130.443 48.0573L129.974 46.1131ZM127.166 46.4482C125.088 46.5292 123.317 46.2506 121.827 45.647L121.076 47.5007C122.882 48.2324 124.946 48.5362 127.243 48.4467L127.166 46.4482ZM121.83 45.6482C120.375 45.0536 119.269 44.1451 118.478 42.9202L116.798 44.006C117.824 45.5935 119.261 46.7589 121.073 47.4995L121.83 45.6482ZM118.478 42.9202C117.7 41.7179 117.282 40.1473 117.295 38.143L115.295 38.1297C115.28 40.4152 115.757 42.3957 116.798 44.006L118.478 42.9202ZM117.295 38.1364V6.43182H115.295V38.1364H117.295ZM137.442 47H136.442V48H137.442V47ZM137.442 14.2727V13.2727H136.442V14.2727H137.442ZM146.519 14.2727H147.519V13.2727H146.519V14.2727ZM146.519 47V48H147.519V47H146.519ZM138.529 8.71165L137.838 9.43476L137.844 9.44002L137.85 9.44521L138.529 8.71165ZM138.529 2.23438L139.214 2.96289L139.214 2.96257L138.529 2.23438ZM145.454 2.23438L144.763 2.95749L144.769 2.96275L144.774 2.96794L145.454 2.23438ZM145.454 8.71165L146.139 9.44016L146.139 9.43985L145.454 8.71165ZM138.442 47V14.2727H136.442V47H138.442ZM137.442 15.2727H146.519V13.2727H137.442V15.2727ZM145.519 14.2727V47H147.519V14.2727H145.519ZM146.519 46H137.442V48H146.519V46ZM142.002 9.05398C140.898 9.05398 139.985 8.69704 139.209 7.97808L137.85 9.44521C139.005 10.516 140.408 11.054 142.002 11.054V9.05398ZM139.22 7.98853C138.457 7.25942 138.102 6.43039 138.102 5.4517H136.102C136.102 7.00142 136.698 8.34569 137.838 9.43476L139.22 7.98853ZM138.102 5.4517C138.102 4.49129 138.453 3.67838 139.214 2.96289L137.844 1.50586C136.702 2.58014 136.102 3.91212 136.102 5.4517H138.102ZM139.214 2.96257C139.991 2.2314 140.903 1.87074 142.002 1.87074V-0.129264C140.403 -0.129264 138.999 0.419161 137.844 1.50618L139.214 2.96257ZM142.002 1.87074C143.102 1.87074 144.003 2.23105 144.763 2.95749L146.145 1.51126C145.002 0.419515 143.602 -0.129264 142.002 -0.129264V1.87074ZM144.774 2.96794C145.548 3.68495 145.903 4.49647 145.903 5.4517H147.903C147.903 3.90693 147.291 2.57357 146.133 1.50081L144.774 2.96794ZM145.903 5.4517C145.903 6.42529 145.545 7.25287 144.768 7.98344L146.139 9.43985C147.295 8.35224 147.903 7.00653 147.903 5.4517H145.903ZM144.769 7.98313C144.009 8.69736 143.106 9.05398 142.002 9.05398V11.054C143.597 11.054 144.995 10.5157 146.139 9.44016L144.769 7.98313ZM153.79 47H152.79V48H153.79V47ZM153.79 14.2727V13.2727H152.79V14.2727H153.79ZM162.441 14.2727H163.441V13.2727H162.441V14.2727ZM162.441 20.0469H161.441V21.0469H162.441V20.0469ZM162.824 20.0469V21.0469H163.53L163.766 20.3819L162.824 20.0469ZM166.233 15.5085L165.662 14.6879L166.233 15.5085ZM177.675 15.5298L177.095 16.3446L177.1 16.348L177.675 15.5298ZM180.828 20.0469L179.865 20.313L180.067 21.0469H180.828V20.0469ZM181.169 20.0469V21.0469H181.875L182.111 20.3823L181.169 20.0469ZM184.792 15.5511L185.332 16.3925L185.334 16.3914L184.792 15.5511ZM198.471 16.7656L197.756 17.4649L197.761 17.4701L198.471 16.7656ZM201.347 47V48H202.347V47H201.347ZM192.292 47H191.292V48H192.292V47ZM190.843 22.6889L190.157 23.4171V23.4171L190.843 22.6889ZM183.364 22.902L184.111 23.567L184.115 23.5619L183.364 22.902ZM181.979 47V48H182.979V47H181.979ZM173.179 47H172.179V48H173.179V47ZM171.794 22.7528L171.071 23.4436L171.077 23.4492L171.794 22.7528ZM165.466 22.0923L165.996 22.9403L166 22.9378L165.466 22.0923ZM163.57 24.2017L164.456 24.6657L164.459 24.66L163.57 24.2017ZM162.867 47V48H163.867V47H162.867ZM154.79 47V14.2727H152.79V47H154.79ZM153.79 15.2727H162.441V13.2727H153.79V15.2727ZM161.441 14.2727V20.0469H163.441V14.2727H161.441ZM162.441 21.0469H162.824V19.0469H162.441V21.0469ZM163.766 20.3819C164.382 18.6504 165.394 17.3117 166.805 16.3291L165.662 14.6879C163.891 15.9213 162.63 17.6081 161.882 19.7119L163.766 20.3819ZM166.805 16.3291C168.205 15.3541 169.902 14.8466 171.944 14.8466V12.8466C169.554 12.8466 167.444 13.447 165.662 14.6879L166.805 16.3291ZM171.944 14.8466C174.014 14.8466 175.714 15.3614 177.095 16.3446L178.255 14.7151C176.483 13.454 174.361 12.8466 171.944 12.8466V14.8466ZM177.1 16.348C178.482 17.3191 179.399 18.6272 179.865 20.313L181.792 19.7807C181.207 17.6598 180.022 15.9565 178.25 14.7116L177.1 16.348ZM180.828 21.0469H181.169V19.0469H180.828V21.0469ZM182.111 20.3823C182.701 18.7253 183.762 17.4007 185.332 16.3925L184.251 14.7097C182.326 15.9459 180.973 17.6185 180.227 19.7114L182.111 20.3823ZM185.334 16.3914C186.911 15.3738 188.798 14.8466 191.034 14.8466V12.8466C188.47 12.8466 186.195 13.4557 184.249 14.7108L185.334 16.3914ZM191.034 14.8466C193.855 14.8466 196.064 15.7355 197.756 17.4649L199.185 16.0664C197.07 13.9038 194.322 12.8466 191.034 12.8466V14.8466ZM197.761 17.4701C199.441 19.1626 200.347 21.6193 200.347 24.9901H202.347C202.347 21.2586 201.335 18.2323 199.18 16.0611L197.761 17.4701ZM200.347 24.9901V47H202.347V24.9901H200.347ZM201.347 46H192.292V48H201.347V46ZM193.292 47V26.7798H191.292V47H193.292ZM193.292 26.7798C193.292 24.7915 192.76 23.1207 191.528 21.9607L190.157 23.4171C190.857 24.0754 191.292 25.1318 191.292 26.7798H193.292ZM191.528 21.9607C190.359 20.8602 188.898 20.3253 187.221 20.3253V22.3253C188.44 22.3253 189.395 22.6994 190.157 23.4171L191.528 21.9607ZM187.221 20.3253C185.341 20.3253 183.76 20.9358 182.613 22.242L184.115 23.5619C184.815 22.7659 185.804 22.3253 187.221 22.3253V20.3253ZM182.617 22.237C181.496 23.4964 180.979 25.1228 180.979 27.0142H182.979C182.979 25.4966 183.386 24.3815 184.111 23.567L182.617 22.237ZM180.979 27.0142V47H182.979V27.0142H180.979ZM181.979 46H173.179V48H181.979V46ZM174.179 47V26.5881H172.179V47H174.179ZM174.179 26.5881C174.179 24.7811 173.653 23.2328 172.512 22.0565L171.077 23.4492C171.782 24.1763 172.179 25.1848 172.179 26.5881H174.179ZM172.518 22.0621C171.394 20.8858 169.918 20.3253 168.194 20.3253V22.3253C169.452 22.3253 170.377 22.7165 171.071 23.4436L172.518 22.0621ZM168.194 20.3253C167.007 20.3253 165.91 20.6291 164.932 21.2468L166 22.9378C166.641 22.5329 167.364 22.3253 168.194 22.3253V20.3253ZM164.936 21.2443C163.975 21.8453 163.225 22.6894 162.681 23.7434L164.459 24.66C164.853 23.8958 165.367 23.3337 165.996 22.9403L164.936 21.2443ZM162.684 23.7377C162.127 24.8012 161.867 26.0175 161.867 27.3551H163.867C163.867 26.278 164.075 25.392 164.456 24.6657L162.684 23.7377ZM161.867 27.3551V47H163.867V27.3551H161.867ZM162.867 46H153.79V48H162.867V46ZM214.738 45.5938L214.243 46.4623L214.249 46.4657L214.738 45.5938ZM209.156 39.7557L208.268 40.2148L208.269 40.2169L209.156 39.7557ZM209.156 21.9219L208.266 21.4648L209.156 21.9219ZM214.674 15.9773L214.163 15.118L214.161 15.1193L214.674 15.9773ZM229.099 14.8906L228.749 15.8273L228.757 15.8304L229.099 14.8906ZM234 17.9801L233.296 18.6908L233.3 18.6944L234 17.9801ZM237.281 23.179L236.344 23.5294L236.345 23.5315L237.281 23.179ZM238.453 32.9588V33.9588H239.453V32.9588H238.453ZM210.818 32.9588H209.818V33.9588H210.818V32.9588ZM210.818 27.3338V26.3338H209.818V27.3338H210.818ZM229.909 27.3338V28.3338H230.909V27.3338H229.909ZM229.056 23.8608L228.185 24.3516L229.056 23.8608ZM226.691 21.4957L226.186 22.3586L226.193 22.3629L226.201 22.367L226.691 21.4957ZM219.554 21.581L220.065 22.4405L220.068 22.4385L219.554 21.581ZM217.082 24.1165L217.952 24.6101L217.955 24.6051L217.082 24.1165ZM216.166 27.6321L215.166 27.6211V27.6321H216.166ZM217.061 37.1776L216.168 37.6291L216.173 37.6376L217.061 37.1776ZM226.35 40.4375L226.029 39.4904L226.35 40.4375ZM228.502 39.1591L227.813 38.435L228.502 39.1591ZM229.866 37.071L229.932 36.0732L229.194 36.0245L228.931 36.7164L229.866 37.071ZM238.261 37.625L239.239 37.8317L239.478 36.7031L238.327 36.6272L238.261 37.625ZM235.64 42.9091L234.889 42.2496L234.888 42.2501L235.64 42.9091ZM230.569 46.4034L230.941 47.3319L230.944 47.3306L230.569 46.4034ZM223.431 46.6392C220.201 46.6392 217.479 45.9856 215.228 44.7218L214.249 46.4657C216.855 47.9292 219.929 48.6392 223.431 48.6392V46.6392ZM215.234 44.7252C212.989 43.4446 211.263 41.6415 210.043 39.2945L208.269 40.2169C209.662 42.8982 211.658 44.9872 214.243 46.4623L215.234 44.7252ZM210.044 39.2965C208.825 36.9372 208.196 34.1111 208.196 30.7855H206.196C206.196 34.3634 206.873 37.5174 208.268 40.2148L210.044 39.2965ZM208.196 30.7855C208.196 27.5499 208.823 24.7571 210.045 22.379L208.266 21.4648C206.875 24.1719 206.196 27.2882 206.196 30.7855H208.196ZM210.045 22.379C211.27 19.9965 212.982 18.1564 215.188 16.8352L214.161 15.1193C211.623 16.6391 209.656 18.762 208.266 21.4648L210.045 22.379ZM215.186 16.8366C217.395 15.5218 220.011 14.8466 223.069 14.8466V12.8466C219.707 12.8466 216.727 13.5919 214.163 15.118L215.186 16.8366ZM223.069 14.8466C225.119 14.8466 227.009 15.1766 228.749 15.8272L229.449 13.954C227.467 13.2126 225.338 12.8466 223.069 12.8466V14.8466ZM228.757 15.8304C230.499 16.4638 232.009 17.4165 233.296 18.6908L234.703 17.2694C233.206 15.788 231.449 14.681 229.441 13.9508L228.757 15.8304ZM233.3 18.6944C234.588 19.957 235.608 21.5603 236.344 23.5294L238.217 22.8286C237.392 20.6215 236.223 18.7589 234.7 17.2658L233.3 18.6944ZM236.345 23.5315C237.075 25.4679 237.453 27.7726 237.453 30.4659H239.453C239.453 27.591 239.05 25.0377 238.217 22.8264L236.345 23.5315ZM237.453 30.4659V32.9588H239.453V30.4659H237.453ZM238.453 31.9588H210.818V33.9588H238.453V31.9588ZM211.818 32.9588V27.3338H209.818V32.9588H211.818ZM210.818 28.3338H229.909V26.3338H210.818V28.3338ZM230.909 27.3338C230.909 25.8776 230.591 24.5468 229.928 23.37L228.185 24.3516C228.659 25.1918 228.909 26.1764 228.909 27.3338H230.909ZM229.928 23.37C229.27 22.2023 228.35 21.2823 227.182 20.6245L226.201 22.367C227.05 22.8455 227.707 23.5023 228.185 24.3516L229.928 23.37ZM227.197 20.6329C226.028 19.9482 224.691 19.6222 223.218 19.6222V21.6222C224.388 21.6222 225.366 21.8785 226.186 22.3586L227.197 20.6329ZM223.218 19.6222C221.68 19.6222 220.276 19.9811 219.039 20.7235L220.068 22.4385C220.962 21.9024 222.001 21.6222 223.218 21.6222V19.6222ZM219.043 20.7214C217.841 21.436 216.892 22.409 216.21 23.6279L217.955 24.6051C218.465 23.6932 219.164 22.9759 220.065 22.4405L219.043 20.7214ZM216.212 23.6229C215.526 24.8315 215.182 26.1713 215.166 27.6211L217.166 27.6431C217.178 26.5076 217.445 25.5038 217.952 24.6101L216.212 23.6229ZM215.166 27.6321V32.9801H217.166V27.6321H215.166ZM215.166 32.9801C215.166 34.7215 215.487 36.2821 216.168 37.6291L217.953 36.726C217.441 35.7151 217.166 34.4774 217.166 32.9801H215.166ZM216.173 37.6376C216.868 38.9794 217.859 40.0325 219.139 40.771L220.139 39.0386C219.203 38.4987 218.475 37.7336 217.949 36.7176L216.173 37.6376ZM219.139 40.771C220.425 41.5131 221.918 41.8636 223.581 41.8636V39.8636C222.203 39.8636 221.068 39.575 220.139 39.0386L219.139 40.771ZM223.581 41.8636C224.683 41.8636 225.717 41.7082 226.672 41.3846L226.029 39.4904C225.308 39.735 224.495 39.8636 223.581 39.8636V41.8636ZM226.672 41.3846C227.637 41.0573 228.483 40.5589 229.192 39.8832L227.813 38.435C227.329 38.8956 226.74 39.2495 226.029 39.4904L226.672 41.3846ZM229.192 39.8832C229.905 39.2047 230.439 38.3796 230.801 37.4257L228.931 36.7164C228.668 37.4102 228.294 37.9771 227.813 38.435L229.192 39.8832ZM229.8 38.0689L238.195 38.6228L238.327 36.6272L229.932 36.0732L229.8 38.0689ZM237.283 37.4183C236.891 39.2726 236.093 40.8768 234.889 42.2496L236.392 43.5686C237.83 41.9301 238.779 40.0115 239.239 37.8317L237.283 37.4183ZM234.888 42.2501C233.697 43.6096 232.142 44.6892 230.195 45.4763L230.944 47.3306C233.144 46.4414 234.97 45.1916 236.392 43.5681L234.888 42.2501ZM230.198 45.4749C228.279 46.2425 226.03 46.6392 223.431 46.6392V48.6392C226.231 48.6392 228.74 48.212 230.941 47.3319L230.198 45.4749ZM253.453 28.0795L252.453 28.0694V28.0795H253.453ZM253.453 47V48H254.453V47H253.453ZM244.376 47H243.376V48H244.376V47ZM244.376 14.2727V13.2727H243.376V14.2727H244.376ZM253.027 14.2727H254.027V13.2727H253.027V14.2727ZM253.027 20.0469H252.027V21.0469H253.027V20.0469ZM253.41 20.0469V21.0469H254.1L254.345 20.4026L253.41 20.0469ZM257.054 15.5298L257.599 16.3683L257.603 16.3651L257.054 15.5298ZM269.199 15.3381L269.706 14.4761L269.199 15.3381ZM273.14 19.5994L272.249 20.0521L272.25 20.0549L273.14 19.5994ZM274.547 47V48H275.547V47H274.547ZM265.47 47H264.47V48H265.47V47ZM265.47 27.7812L264.47 27.7742V27.7812H265.47ZM263.936 23.0938L263.197 23.7678L263.201 23.7724L263.936 23.0938ZM256.414 22.1776L255.925 21.3053L255.92 21.3085L256.414 22.1776ZM254.241 24.4787L253.354 24.0165L253.352 24.0213L254.241 24.4787ZM252.453 28.0795V47H254.453V28.0795H252.453ZM253.453 46H244.376V48H253.453V46ZM245.376 47V14.2727H243.376V47H245.376ZM244.376 15.2727H253.027V13.2727H244.376V15.2727ZM252.027 14.2727V20.0469H254.027V14.2727H252.027ZM253.027 21.0469H253.41V19.0469H253.027V21.0469ZM254.345 20.4026C254.994 18.6969 256.072 17.3605 257.599 16.3683L256.509 14.6914C254.626 15.9151 253.275 17.59 252.476 19.6912L254.345 20.4026ZM257.603 16.3651C259.116 15.3694 260.983 14.8466 263.254 14.8466V12.8466C260.667 12.8466 258.4 13.4459 256.504 14.6946L257.603 16.3651ZM263.254 14.8466C265.377 14.8466 267.178 15.3096 268.691 16.2L269.706 14.4761C267.839 13.3779 265.676 12.8466 263.254 12.8466V14.8466ZM268.691 16.2C270.208 17.0919 271.393 18.3659 272.249 20.0521L274.032 19.1467C273.013 17.1398 271.57 15.5729 269.706 14.4761L268.691 16.2ZM272.25 20.0549C273.1 21.717 273.547 23.7411 273.547 26.1619H275.547C275.547 23.4976 275.055 21.1467 274.031 19.144L272.25 20.0549ZM273.547 26.1619V47H275.547V26.1619H273.547ZM274.547 46H265.47V48H274.547V46ZM266.47 47V27.7812H264.47V47H266.47ZM266.47 27.7883C266.485 25.6128 265.928 23.776 264.67 22.4151L263.201 23.7724C264.018 24.6558 264.483 25.9441 264.47 27.7742L266.47 27.7883ZM264.674 22.4197C263.413 21.0378 261.697 20.3892 259.653 20.3892V22.3892C261.246 22.3892 262.384 22.877 263.197 23.7678L264.674 22.4197ZM259.653 20.3892C258.284 20.3892 257.032 20.6851 255.925 21.3053L256.903 23.0498C257.672 22.6189 258.579 22.3892 259.653 22.3892V20.3892ZM255.92 21.3085C254.817 21.936 253.962 22.8501 253.354 24.0166L255.128 24.9408C255.571 24.0903 256.165 23.4703 256.909 23.0466L255.92 21.3085ZM253.352 24.0213C252.753 25.1851 252.468 26.5467 252.453 28.0694L254.453 28.0896C254.466 26.7999 254.706 25.7609 255.13 24.936L253.352 24.0213ZM299.108 14.2727H300.108V13.2727H299.108V14.2727ZM299.108 21.0909V22.0909H300.108V21.0909H299.108ZM279.399 21.0909H278.399V22.0909H279.399V21.0909ZM279.399 14.2727V13.2727H278.399V14.2727H279.399ZM283.874 6.43182V5.43182H282.874V6.43182H283.874ZM292.95 6.43182H293.95V5.43182H292.95V6.43182ZM293.334 38.9034L292.456 39.3823L292.462 39.3937L293.334 38.9034ZM294.399 39.8622L294.023 40.7887L294.033 40.7926L294.399 39.8622ZM297.297 40.0327L297.461 41.0191L297.477 41.0164L297.493 41.0133L297.297 40.0327ZM298.277 39.8409L299.255 39.6341L299.053 38.6779L298.093 38.858L298.277 39.8409ZM299.705 46.5952L300.003 47.5497L300.871 47.2783L300.683 46.3884L299.705 46.5952ZM297.787 47.0852L297.568 46.1094L297.56 46.1112L297.552 46.1131L297.787 47.0852ZM294.783 47.4474L294.747 46.4481L294.744 46.4482L294.783 47.4474ZM289.03 46.5739L288.652 47.4995L288.654 47.5007L289.03 46.5739ZM285.216 43.4631L286.056 42.9202L285.216 43.4631ZM283.874 38.1364L284.874 38.143V38.1364H283.874ZM298.108 14.2727V21.0909H300.108V14.2727H298.108ZM299.108 20.0909H279.399V22.0909H299.108V20.0909ZM280.399 21.0909V14.2727H278.399V21.0909H280.399ZM279.399 15.2727H299.108V13.2727H279.399V15.2727ZM283.874 7.43182H292.95V5.43182H283.874V7.43182ZM291.95 6.43182V36.9432H293.95V6.43182H291.95ZM291.95 36.9432C291.95 37.8623 292.087 38.706 292.456 39.3823L294.212 38.4246C294.069 38.1633 293.95 37.7002 293.95 36.9432H291.95ZM292.462 39.3937C292.821 40.0321 293.345 40.5133 294.023 40.7887L294.776 38.9357C294.544 38.8419 294.358 38.6838 294.205 38.4131L292.462 39.3937ZM294.033 40.7926C294.64 41.0319 295.308 41.1392 296.018 41.1392V39.1392C295.507 39.1392 295.096 39.0619 294.766 38.9318L294.033 40.7926ZM296.018 41.1392C296.5 41.1392 296.982 41.099 297.461 41.0191L297.132 39.0463C296.76 39.1084 296.389 39.1392 296.018 39.1392V41.1392ZM297.493 41.0133C297.918 40.9283 298.24 40.8653 298.461 40.8238L298.093 38.858C297.859 38.9018 297.528 38.9666 297.101 39.0521L297.493 41.0133ZM297.299 40.0477L298.726 46.802L300.683 46.3884L299.255 39.6341L297.299 40.0477ZM299.406 45.6407C298.991 45.7706 298.382 45.927 297.568 46.1094L298.006 48.061C298.839 47.8742 299.509 47.7038 300.003 47.5497L299.406 45.6407ZM297.552 46.1131C296.813 46.2915 295.883 46.407 294.747 46.4481L294.819 48.4468C296.041 48.4026 297.113 48.2766 298.022 48.0573L297.552 46.1131ZM294.744 46.4482C292.666 46.5292 290.895 46.2506 289.405 45.647L288.654 47.5007C290.46 48.2324 292.524 48.5362 294.822 48.4467L294.744 46.4482ZM289.408 45.6482C287.953 45.0536 286.848 44.1451 286.056 42.9202L284.376 44.006C285.402 45.5935 286.839 46.7589 288.652 47.4995L289.408 45.6482ZM286.056 42.9202C285.278 41.7179 284.86 40.1473 284.874 38.143L282.874 38.1297C282.858 40.4152 283.335 42.3957 284.376 44.006L286.056 42.9202ZM284.874 38.1364V6.43182H282.874V38.1364H284.874ZM25.4645 88.9134L24.4694 89.012L24.5588 89.9134H25.4645V88.9134ZM14.1932 84.1193L14.5624 85.0487L14.5733 85.0443L14.1932 84.1193ZM11.8068 85.8452L11.0068 85.2451L10.9994 85.2551L11.8068 85.8452ZM10.9972 88.3594L11.9965 88.3957L11.9972 88.3775V88.3594H10.9972ZM11.4872 90.4048L10.6334 90.9254L10.638 90.9329L10.6427 90.9404L11.4872 90.4048ZM13 91.9176L12.4453 92.7497L12.4518 92.754L12.4583 92.7582L13 91.9176ZM15.2159 93.0043L14.8665 93.9412L14.8735 93.9439L14.8806 93.9464L15.2159 93.0043ZM17.9006 93.7713L18.1331 92.7987L18.1261 92.797L18.119 92.7955L17.9006 93.7713ZM21.821 94.7088L21.5885 95.6814L21.5955 95.6831L21.6026 95.6846L21.821 94.7088ZM27.0625 96.4134L26.6548 97.3265H26.6549L27.0625 96.4134ZM31.196 99.0341L31.861 98.2872L31.196 99.0341ZM33.902 102.699L32.9916 103.113L32.9951 103.12L33.902 102.699ZM34.9034 107.536L35.9035 107.541L35.9034 107.528L34.9034 107.536ZM32.858 114.482L32.0343 113.914L32.0334 113.916L32.858 114.482ZM27.0625 119.02L27.4527 119.941L27.4552 119.94L27.0625 119.02ZM8.75994 118.999L8.3764 119.922L8.37818 119.923L8.75994 118.999ZM2.66619 114.205L1.83924 114.767L1.8436 114.773L2.66619 114.205ZM0.386364 106.3V105.3H-0.636517L-0.613381 106.322L0.386364 106.3ZM9.31392 106.3L10.3116 106.232L10.2483 105.3H9.31392V106.3ZM10.571 109.964L9.77241 110.566L9.7773 110.573L9.7823 110.579L10.571 109.964ZM13.5753 112.159L13.2057 113.088L13.2184 113.093L13.5753 112.159ZM21.9276 112.202L21.564 111.27L21.5601 111.272L21.9276 112.202ZM24.6335 110.305L25.4184 110.925L24.6335 110.305ZM24.7188 105.043L23.9572 105.691L23.9652 105.7L24.7188 105.043ZM22.2045 103.338L21.8106 104.257L21.8149 104.259L22.2045 103.338ZM18.1776 102.06L17.934 103.03L17.9432 103.032L18.1776 102.06ZM13.4261 100.866L13.6697 99.8966L13.6625 99.8948L13.4261 100.866ZM4.71165 96.669L4.04543 97.4148L4.71165 96.669ZM1.53693 88.9773L2.53697 88.9817L2.53692 88.9719L1.53693 88.9773ZM3.64631 82.0526L2.83731 81.4647L2.83455 81.4686L3.64631 82.0526ZM26.5511 77.429L26.1341 78.3379L26.1361 78.3388L26.5511 77.429ZM32.2188 82.0526L31.3932 82.6168L32.2188 82.0526ZM34.3068 88.9134V89.9134H35.3233L35.3067 88.897L34.3068 88.9134ZM26.4596 88.8147C26.2636 86.8381 25.4023 85.2359 23.8628 84.1024L22.677 85.7129C23.7227 86.4829 24.3245 87.5511 24.4694 89.012L26.4596 88.8147ZM23.8628 84.1024C22.3439 82.9841 20.3569 82.4801 18.0071 82.4801V84.4801C20.0891 84.4801 21.6107 84.9279 22.677 85.7129L23.8628 84.1024ZM18.0071 82.4801C16.4132 82.4801 15.0043 82.7048 13.8131 83.1944L14.5733 85.0443C15.456 84.6815 16.5897 84.4801 18.0071 84.4801V82.4801ZM13.824 83.19C12.6517 83.6557 11.6924 84.3311 11.0068 85.2452L12.6068 86.4452C13.0292 85.882 13.6608 85.4068 14.5624 85.0487L13.824 83.19ZM10.9994 85.2551C10.3312 86.1695 9.99716 87.2154 9.99716 88.3594H11.9972C11.9972 87.6284 12.2029 86.9981 12.6142 86.4352L10.9994 85.2551ZM9.99782 88.323C9.96336 89.2708 10.1619 90.1522 10.6334 90.9254L12.341 89.8842C12.1023 89.4927 11.9741 89.0105 11.9965 88.3957L9.99782 88.323ZM10.6427 90.9404C11.095 91.6535 11.7031 92.2549 12.4453 92.7497L13.5547 91.0856C13.0184 90.7281 12.6181 90.3209 12.3317 89.8693L10.6427 90.9404ZM12.4583 92.7582C13.1674 93.2152 13.9725 93.6079 14.8665 93.9412L15.5653 92.0673C14.7832 91.7756 14.111 91.4439 13.5417 91.077L12.4583 92.7582ZM14.8806 93.9464C15.7603 94.2595 16.6945 94.5261 17.6821 94.7471L18.119 92.7955C17.2032 92.5904 16.3476 92.3456 15.5512 92.0622L14.8806 93.9464ZM17.668 94.7439L21.5885 95.6814L22.0536 93.7362L18.1331 92.7987L17.668 94.7439ZM21.6026 95.6846C23.4486 96.0979 25.1315 96.6464 26.6548 97.3265L27.4702 95.5002C25.8117 94.7598 24.0003 94.172 22.0395 93.733L21.6026 95.6846ZM26.6549 97.3265C28.1628 97.9997 29.4514 98.8198 30.5311 99.781L31.861 98.2872C30.6111 97.1745 29.144 96.2475 27.4701 95.5002L26.6549 97.3265ZM30.5311 99.781C31.5928 100.726 32.4107 101.835 32.9916 103.113L34.8124 102.285C34.1149 100.751 33.1288 99.4159 31.861 98.2872L30.5311 99.781ZM32.9951 103.12C33.5788 104.376 33.8902 105.844 33.9034 107.543L35.9034 107.528C35.8882 105.591 35.532 103.834 34.8089 102.277L32.9951 103.12ZM33.9034 107.53C33.8902 110.025 33.2563 112.139 32.0343 113.914L33.6816 115.049C35.1585 112.903 35.8883 110.387 35.9034 107.541L33.9034 107.53ZM32.0334 113.916C30.8223 115.681 29.0529 117.083 26.6698 118.1L27.4552 119.94C30.1289 118.798 32.2231 117.174 33.6825 115.047L32.0334 113.916ZM26.6723 118.099C24.3126 119.099 21.42 119.618 17.9645 119.618V121.618C21.6112 121.618 24.784 121.071 27.4527 119.941L26.6723 118.099ZM17.9645 119.618C14.5416 119.618 11.6085 119.093 9.1417 118.074L8.37818 119.923C11.1387 121.063 14.3419 121.618 17.9645 121.618V119.618ZM9.14348 118.075C6.70412 117.062 4.83242 115.58 3.48878 113.636L1.8436 114.773C3.4261 117.062 5.6169 118.776 8.3764 119.922L9.14348 118.075ZM3.49312 113.642C2.17433 111.703 1.45373 109.266 1.38611 106.277L-0.613381 106.322C-0.538956 109.612 0.260331 112.445 1.83927 114.767L3.49312 113.642ZM0.386364 107.3H9.31392V105.3H0.386364V107.3ZM8.31622 106.368C8.42621 107.986 8.89591 109.403 9.77241 110.566L11.3696 109.363C10.7689 108.565 10.4005 107.54 10.3116 106.232L8.31622 106.368ZM9.7823 110.579C10.655 111.699 11.8073 112.532 13.2057 113.088L13.9449 111.23C12.8433 110.792 11.9927 110.162 11.3597 109.35L9.7823 110.579ZM13.2184 113.093C14.6147 113.627 16.1661 113.884 17.858 113.884V111.884C16.368 111.884 15.0643 111.657 13.9322 111.225L13.2184 113.093ZM17.858 113.884C19.5145 113.884 21.0011 113.643 22.295 113.132L21.5601 111.272C20.5529 111.67 19.3264 111.884 17.858 111.884V113.884ZM22.2911 113.133C23.5865 112.628 24.6478 111.901 25.4184 110.925L23.8486 109.686C23.3409 110.329 22.5982 110.867 21.564 111.27L22.2911 113.133ZM25.4184 110.925C26.1998 109.935 26.5923 108.786 26.5923 107.514H24.5923C24.5923 108.345 24.3457 109.056 23.8486 109.686L25.4184 110.925ZM26.5923 107.514C26.5923 106.32 26.2309 105.255 25.4723 104.385L23.9652 105.7C24.3714 106.166 24.5923 106.748 24.5923 107.514H26.5923ZM25.4803 104.394C24.7807 103.572 23.7951 102.925 22.5942 102.417L21.8149 104.259C22.8299 104.688 23.5205 105.178 23.9572 105.691L25.4803 104.394ZM22.5985 102.419C21.438 101.922 20.0387 101.48 18.4119 101.088L17.9432 103.032C19.4982 103.407 20.7836 103.817 21.8106 104.257L22.5985 102.419ZM18.4211 101.09L13.6697 99.8966L13.1826 101.836L17.934 103.03L18.4211 101.09ZM13.6625 99.8948C10.0932 99.0266 7.35264 97.6874 5.37786 95.9233L4.04543 97.4148C6.33202 99.4575 9.40113 100.917 13.1898 101.838L13.6625 99.8948ZM5.37786 95.9233C3.48945 94.2363 2.5238 91.9608 2.53692 88.9817L0.536942 88.9729C0.521656 92.4426 1.67248 95.295 4.04543 97.4148L5.37786 95.9233ZM2.53692 88.9719C2.52375 86.522 3.17186 84.4244 4.45806 82.6366L2.83455 81.4686C1.27984 83.6296 0.521708 86.1484 0.536947 88.9826L2.53692 88.9719ZM4.45529 82.6404C5.7744 80.825 7.59465 79.3886 9.95347 78.3432L9.14312 76.5147C6.50194 77.6853 4.38753 79.3313 2.83732 81.4647L4.45529 82.6404ZM9.95347 78.3432C12.3067 77.3003 15.0061 76.767 18.071 76.767V74.767C14.7723 74.767 11.7899 75.3417 9.14312 76.5147L9.95347 78.3432ZM18.071 76.767C21.1966 76.767 23.8756 77.3016 26.1341 78.3379L26.9682 76.5201C24.3971 75.3404 21.4227 74.767 18.071 74.767V76.767ZM26.1361 78.3388C28.4191 79.3802 30.1582 80.8098 31.3932 82.6168L33.0443 81.4883C31.5805 79.3464 29.5411 77.6937 26.9661 76.5192L26.1361 78.3388ZM31.3932 82.6168C32.6225 84.4155 33.2673 86.5083 33.307 88.9297L35.3067 88.897C35.2612 86.1196 34.5139 83.6385 33.0443 81.4883L31.3932 82.6168ZM34.3068 87.9134H25.4645V89.9134H34.3068V87.9134ZM47.1602 118.594L46.6646 119.462L46.6706 119.466L47.1602 118.594ZM41.5778 112.756L40.6894 113.215L40.6905 113.217L41.5778 112.756ZM41.5778 94.9219L40.6884 94.4648L41.5778 94.9219ZM47.0962 88.9773L46.5848 88.118L46.5825 88.1193L47.0962 88.9773ZM61.521 87.8906L61.1706 88.8273L61.1792 88.8304L61.521 87.8906ZM66.4215 90.9801L65.718 91.6908L65.7217 91.6944L66.4215 90.9801ZM69.7028 96.179L68.7662 96.5294L68.767 96.5315L69.7028 96.179ZM70.8746 105.959V106.959H71.8746V105.959H70.8746ZM43.2397 105.959H42.2397V106.959H43.2397V105.959ZM43.2397 100.334V99.3338H42.2397V100.334H43.2397ZM62.3306 100.334V101.334H63.3306V100.334H62.3306ZM61.4783 96.8608L60.6071 97.3516L61.4783 96.8608ZM59.1133 94.4957L58.6079 95.3586L58.6151 95.3629L58.6224 95.367L59.1133 94.4957ZM51.9755 94.581L52.4866 95.4405L52.49 95.4385L51.9755 94.581ZM49.5039 97.1165L50.3736 97.6101L50.3764 97.6051L49.5039 97.1165ZM48.5877 100.632L47.5877 100.621V100.632H48.5877ZM49.4826 110.178L48.5903 110.629L48.5947 110.638L49.4826 110.178ZM58.7724 113.438L58.4513 112.49L58.7724 113.438ZM60.9244 112.159L60.2347 111.435H60.2347L60.9244 112.159ZM62.288 110.071L62.3538 109.073L61.6154 109.024L61.353 109.716L62.288 110.071ZM70.6829 110.625L71.6613 110.832L71.8997 109.703L70.7487 109.627L70.6829 110.625ZM68.0621 115.909L67.3104 115.25L67.31 115.25L68.0621 115.909ZM62.9911 119.403L63.3625 120.332L63.3658 120.331L62.9911 119.403ZM55.8533 119.639C52.6227 119.639 49.9009 118.986 47.6497 117.722L46.6706 119.466C49.2774 120.929 52.351 121.639 55.8533 121.639V119.639ZM47.6557 117.725C45.4114 116.445 43.685 114.642 42.4651 112.294L40.6905 113.217C42.0842 115.898 44.0794 117.987 46.6646 119.462L47.6557 117.725ZM42.4661 112.297C41.2467 109.937 40.6175 107.111 40.6175 103.786H38.6175C38.6175 107.363 39.2952 110.517 40.6894 113.215L42.4661 112.297ZM40.6175 103.786C40.6175 100.55 41.2449 97.7571 42.4672 95.379L40.6884 94.4648C39.297 97.1719 38.6175 100.288 38.6175 103.786H40.6175ZM42.4672 95.379C43.6917 92.9965 45.4036 91.1564 47.61 89.8352L46.5825 88.1193C44.0445 89.6391 42.0775 91.762 40.6884 94.4648L42.4672 95.379ZM47.6077 89.8366C49.8166 88.5218 52.4324 87.8466 55.4911 87.8466V85.8466C52.1293 85.8466 49.1486 86.5919 46.5848 88.118L47.6077 89.8366ZM55.4911 87.8466C57.541 87.8466 59.4312 88.1766 61.1706 88.8272L61.8713 86.954C59.8891 86.2126 57.7594 85.8466 55.4911 85.8466V87.8466ZM61.1792 88.8304C62.9211 89.4638 64.4306 90.4165 65.718 91.6908L67.125 90.2694C65.6284 88.788 63.8708 87.681 61.8627 86.9508L61.1792 88.8304ZM65.7217 91.6944C67.0103 92.957 68.0294 94.5603 68.7662 96.5294L70.6394 95.8286C69.8136 93.6215 68.6453 91.7589 67.1214 90.2658L65.7217 91.6944ZM68.767 96.5315C69.4965 98.4679 69.8746 100.773 69.8746 103.466H71.8746C71.8746 100.591 71.4716 98.0377 70.6386 95.8264L68.767 96.5315ZM69.8746 103.466V105.959H71.8746V103.466H69.8746ZM70.8746 104.959H43.2397V106.959H70.8746V104.959ZM44.2397 105.959V100.334H42.2397V105.959H44.2397ZM43.2397 101.334H62.3306V99.3338H43.2397V101.334ZM63.3306 100.334C63.3306 98.8776 63.0126 97.5468 62.3496 96.3699L60.6071 97.3516C61.0804 98.1918 61.3306 99.1764 61.3306 100.334H63.3306ZM62.3496 96.3699C61.6917 95.2023 60.7718 94.2823 59.6041 93.6245L58.6224 95.367C59.4718 95.8455 60.1286 96.5023 60.6071 97.3516L62.3496 96.3699ZM59.6187 93.6329C58.4498 92.9482 57.1125 92.6222 55.6403 92.6222V94.6222C56.8101 94.6222 57.7882 94.8785 58.6079 95.3586L59.6187 93.6329ZM55.6403 92.6222C54.1015 92.6222 52.6983 92.9811 51.461 93.7235L52.49 95.4385C53.3834 94.9024 54.4234 94.6222 55.6403 94.6222V92.6222ZM51.4644 93.7214C50.2626 94.436 49.3139 95.409 48.6314 96.6279L50.3764 97.6051C50.8871 96.6932 51.5862 95.9759 52.4866 95.4405L51.4644 93.7214ZM48.6342 96.6229C47.9483 97.8315 47.6037 99.1713 47.5878 100.621L49.5877 100.643C49.6001 99.5076 49.8664 98.5038 50.3736 97.6101L48.6342 96.6229ZM47.5877 100.632V105.98H49.5877V100.632H47.5877ZM47.5877 105.98C47.5877 107.721 47.9087 109.282 48.5903 110.629L50.3749 109.726C49.8633 108.715 49.5877 107.477 49.5877 105.98H47.5877ZM48.5947 110.638C49.2899 111.979 50.281 113.033 51.561 113.771L52.5604 112.039C51.6246 111.499 50.8969 110.734 50.3705 109.718L48.5947 110.638ZM51.561 113.771C52.8473 114.513 54.3403 114.864 56.0025 114.864V112.864C54.6249 112.864 53.4901 112.575 52.5604 112.039L51.561 113.771ZM56.0025 114.864C57.1052 114.864 58.1386 114.708 59.0934 114.385L58.4513 112.49C57.73 112.735 56.9168 112.864 56.0025 112.864V114.864ZM59.0934 114.385C60.0587 114.057 60.9046 113.559 61.614 112.883L60.2347 111.435C59.751 111.896 59.1622 112.249 58.4513 112.49L59.0934 114.385ZM61.614 112.883C62.3265 112.205 62.8612 111.38 63.223 110.426L61.353 109.716C61.0898 110.41 60.7155 110.977 60.2347 111.435L61.614 112.883ZM62.2222 111.069L70.617 111.623L70.7487 109.627L62.3538 109.073L62.2222 111.069ZM69.7045 110.418C69.3127 112.273 68.5149 113.877 67.3104 115.25L68.8138 116.569C70.2514 114.93 71.2008 113.012 71.6613 110.832L69.7045 110.418ZM67.31 115.25C66.1188 116.61 64.564 117.689 62.6164 118.476L63.3658 120.331C65.566 119.441 67.3918 118.192 68.8143 116.568L67.31 115.25ZM62.6197 118.475C60.7008 119.243 58.4518 119.639 55.8533 119.639V121.639C58.6526 121.639 61.1622 121.212 63.3625 120.332L62.6197 118.475ZM85.8746 101.08L84.8746 101.069V101.08H85.8746ZM85.8746 120V121H86.8746V120H85.8746ZM76.7979 120H75.7979V121H76.7979V120ZM76.7979 87.2727V86.2727H75.7979V87.2727H76.7979ZM85.4485 87.2727H86.4485V86.2727H85.4485V87.2727ZM85.4485 93.0469H84.4485V94.0469H85.4485V93.0469ZM85.832 93.0469V94.0469H86.5214L86.7666 93.4026L85.832 93.0469ZM89.4755 88.5298L90.0205 89.3683L90.0254 89.3651L89.4755 88.5298ZM101.62 88.3381L102.127 87.4761L101.62 88.3381ZM105.562 92.5994L104.67 93.0521L104.672 93.0549L105.562 92.5994ZM106.968 120V121H107.968V120H106.968ZM97.8917 120H96.8917V121H97.8917V120ZM97.8917 100.781L96.8917 100.774V100.781H97.8917ZM96.3576 96.0938L95.6189 96.7678L95.6232 96.7724L96.3576 96.0938ZM88.8363 95.1776L88.3473 94.3053L88.3416 94.3085L88.8363 95.1776ZM86.663 97.4787L85.7762 97.0165L85.7737 97.0213L86.663 97.4787ZM84.8746 101.08V120H86.8746V101.08H84.8746ZM85.8746 119H76.7979V121H85.8746V119ZM77.7979 120V87.2727H75.7979V120H77.7979ZM76.7979 88.2727H85.4485V86.2727H76.7979V88.2727ZM84.4485 87.2727V93.0469H86.4485V87.2727H84.4485ZM85.4485 94.0469H85.832V92.0469H85.4485V94.0469ZM86.7666 93.4026C87.4158 91.6969 88.494 90.3605 90.0205 89.3683L88.9305 87.6914C87.0479 88.9151 85.6971 90.59 84.8974 92.6912L86.7666 93.4026ZM90.0254 89.3651C91.5377 88.3694 93.4045 87.8466 95.6758 87.8466V85.8466C93.0891 85.8466 90.8223 86.4459 88.9256 87.6946L90.0254 89.3651ZM95.6758 87.8466C97.7989 87.8466 99.5997 88.3096 101.113 89.2L102.127 87.4761C100.26 86.3779 98.0981 85.8466 95.6758 85.8466V87.8466ZM101.113 89.2C102.63 90.0919 103.814 91.3659 104.67 93.0521L106.454 92.1467C105.435 90.1398 103.992 88.5729 102.127 87.4761L101.113 89.2ZM104.672 93.0549C105.522 94.717 105.968 96.7411 105.968 99.1619H107.968C107.968 96.4976 107.477 94.1467 106.452 92.144L104.672 93.0549ZM105.968 99.1619V120H107.968V99.1619H105.968ZM106.968 119H97.8917V121H106.968V119ZM98.8917 120V100.781H96.8917V120H98.8917ZM98.8917 100.788C98.9071 98.6128 98.3496 96.776 97.092 95.4151L95.6232 96.7724C96.4395 97.6558 96.9047 98.9441 96.8917 100.774L98.8917 100.788ZM97.0963 95.4197C95.8353 94.0378 94.1184 93.3892 92.0749 93.3892V95.3892C93.6678 95.3892 94.8061 95.877 95.6189 96.7678L97.0963 95.4197ZM92.0749 93.3892C90.7058 93.3892 89.4536 93.6851 88.3473 94.3053L89.3253 96.0498C90.094 95.6189 91.0008 95.3892 92.0749 95.3892V93.3892ZM88.3416 94.3085C87.2393 94.936 86.3841 95.8501 85.7762 97.0166L87.5498 97.9408C87.9931 97.0903 88.5867 96.4703 89.331 96.0466L88.3416 94.3085ZM85.7737 97.0213C85.1752 98.1851 84.8901 99.5467 84.8747 101.069L86.8746 101.09C86.8876 99.7999 87.1281 98.7609 87.5523 97.936L85.7737 97.0213ZM131.53 87.2727H132.53V86.2727H131.53V87.2727ZM131.53 94.0909V95.0909H132.53V94.0909H131.53ZM111.821 94.0909H110.821V95.0909H111.821V94.0909ZM111.821 87.2727V86.2727H110.821V87.2727H111.821ZM116.295 79.4318V78.4318H115.295V79.4318H116.295ZM125.372 79.4318H126.372V78.4318H125.372V79.4318ZM125.756 111.903L124.878 112.382L124.884 112.394L125.756 111.903ZM126.821 112.862L126.445 113.789L126.454 113.793L126.821 112.862ZM129.719 113.033L129.883 114.019L129.899 114.016L129.915 114.013L129.719 113.033ZM130.699 112.841L131.677 112.634L131.475 111.678L130.515 111.858L130.699 112.841ZM132.126 119.595L132.425 120.55L133.293 120.278L133.105 119.388L132.126 119.595ZM130.209 120.085L129.99 119.109L129.982 119.111L129.974 119.113L130.209 120.085ZM127.205 120.447L127.168 119.448L127.166 119.448L127.205 120.447ZM121.452 119.574L121.073 120.5L121.076 120.501L121.452 119.574ZM117.638 116.463L118.478 115.92L117.638 116.463ZM116.295 111.136L117.295 111.143V111.136H116.295ZM130.53 87.2727V94.0909H132.53V87.2727H130.53ZM131.53 93.0909H111.821V95.0909H131.53V93.0909ZM112.821 94.0909V87.2727H110.821V94.0909H112.821ZM111.821 88.2727H131.53V86.2727H111.821V88.2727ZM116.295 80.4318H125.372V78.4318H116.295V80.4318ZM124.372 79.4318V109.943H126.372V79.4318H124.372ZM124.372 109.943C124.372 110.862 124.509 111.706 124.878 112.382L126.634 111.425C126.491 111.163 126.372 110.7 126.372 109.943H124.372ZM124.884 112.394C125.243 113.032 125.767 113.513 126.445 113.789L127.197 111.936C126.966 111.842 126.779 111.684 126.627 111.413L124.884 112.394ZM126.454 113.793C127.062 114.032 127.73 114.139 128.44 114.139V112.139C127.929 112.139 127.518 112.062 127.188 111.932L126.454 113.793ZM128.44 114.139C128.922 114.139 129.403 114.099 129.883 114.019L129.554 112.046C129.182 112.108 128.811 112.139 128.44 112.139V114.139ZM129.915 114.013C130.34 113.928 130.662 113.865 130.883 113.824L130.515 111.858C130.281 111.902 129.95 111.967 129.523 112.052L129.915 114.013ZM129.72 113.048L131.148 119.802L133.105 119.388L131.677 112.634L129.72 113.048ZM131.828 118.641C131.412 118.771 130.804 118.927 129.99 119.109L130.428 121.061C131.261 120.874 131.931 120.704 132.425 120.55L131.828 118.641ZM129.974 119.113C129.235 119.292 128.304 119.407 127.168 119.448L127.241 121.447C128.463 121.403 129.535 121.277 130.443 121.057L129.974 119.113ZM127.166 119.448C125.088 119.529 123.317 119.251 121.827 118.647L121.076 120.501C122.882 121.232 124.946 121.536 127.243 121.447L127.166 119.448ZM121.83 118.648C120.375 118.054 119.269 117.145 118.478 115.92L116.798 117.006C117.824 118.594 119.261 119.759 121.073 120.5L121.83 118.648ZM118.478 115.92C117.7 114.718 117.282 113.147 117.295 111.143L115.295 111.13C115.28 113.415 115.757 115.396 116.798 117.006L118.478 115.92ZM117.295 111.136V79.4318H115.295V111.136H117.295ZM137.442 120H136.442V121H137.442V120ZM137.442 87.2727V86.2727H136.442V87.2727H137.442ZM146.519 87.2727H147.519V86.2727H146.519V87.2727ZM146.519 120V121H147.519V120H146.519ZM138.529 81.7116L137.838 82.4348L137.844 82.44L137.85 82.4452L138.529 81.7116ZM138.529 75.2344L139.214 75.9629L139.214 75.9626L138.529 75.2344ZM145.454 75.2344L144.763 75.9575L144.769 75.9628L144.774 75.9679L145.454 75.2344ZM145.454 81.7116L146.139 82.4402L146.139 82.4398L145.454 81.7116ZM138.442 120V87.2727H136.442V120H138.442ZM137.442 88.2727H146.519V86.2727H137.442V88.2727ZM145.519 87.2727V120H147.519V87.2727H145.519ZM146.519 119H137.442V121H146.519V119ZM142.002 82.054C140.898 82.054 139.985 81.697 139.209 80.9781L137.85 82.4452C139.005 83.516 140.408 84.054 142.002 84.054V82.054ZM139.22 80.9885C138.457 80.2594 138.102 79.4304 138.102 78.4517H136.102C136.102 80.0014 136.698 81.3457 137.838 82.4348L139.22 80.9885ZM138.102 78.4517C138.102 77.4913 138.453 76.6784 139.214 75.9629L137.844 74.5059C136.702 75.5801 136.102 76.9121 136.102 78.4517H138.102ZM139.214 75.9626C139.991 75.2314 140.903 74.8707 142.002 74.8707V72.8707C140.403 72.8707 138.999 73.4192 137.844 74.5062L139.214 75.9626ZM142.002 74.8707C143.102 74.8707 144.003 75.231 144.763 75.9575L146.145 74.5113C145.002 73.4195 143.602 72.8707 142.002 72.8707V74.8707ZM144.774 75.9679C145.548 76.6849 145.903 77.4965 145.903 78.4517H147.903C147.903 76.9069 147.291 75.5736 146.133 74.5008L144.774 75.9679ZM145.903 78.4517C145.903 79.4253 145.545 80.2529 144.768 80.9834L146.139 82.4398C147.295 81.3522 147.903 80.0065 147.903 78.4517H145.903ZM144.769 80.9831C144.009 81.6974 143.106 82.054 142.002 82.054V84.054C143.597 84.054 144.995 83.5157 146.139 82.4402L144.769 80.9831ZM162.867 101.08L161.867 101.069V101.08H162.867ZM162.867 120V121H163.867V120H162.867ZM153.79 120H152.79V121H153.79V120ZM153.79 87.2727V86.2727H152.79V87.2727H153.79ZM162.441 87.2727H163.441V86.2727H162.441V87.2727ZM162.441 93.0469H161.441V94.0469H162.441V93.0469ZM162.824 93.0469V94.0469H163.514L163.759 93.4026L162.824 93.0469ZM166.468 88.5298L167.013 89.3683L167.018 89.3651L166.468 88.5298ZM178.613 88.3381L179.12 87.4761L178.613 88.3381ZM182.554 92.5994L181.663 93.0521L181.664 93.0549L182.554 92.5994ZM183.961 120V121H184.961V120H183.961ZM174.884 120H173.884V121H174.884V120ZM174.884 100.781L173.884 100.774V100.781H174.884ZM173.35 96.0938L172.611 96.7678L172.615 96.7724L173.35 96.0938ZM165.828 95.1776L165.339 94.3053L165.334 94.3085L165.828 95.1776ZM163.655 97.4787L162.768 97.0165L162.766 97.0213L163.655 97.4787ZM161.867 101.08V120H163.867V101.08H161.867ZM162.867 119H153.79V121H162.867V119ZM154.79 120V87.2727H152.79V120H154.79ZM153.79 88.2727H162.441V86.2727H153.79V88.2727ZM161.441 87.2727V93.0469H163.441V87.2727H161.441ZM162.441 94.0469H162.824V92.0469H162.441V94.0469ZM163.759 93.4026C164.408 91.6969 165.486 90.3605 167.013 89.3683L165.923 87.6914C164.04 88.9151 162.689 90.59 161.89 92.6912L163.759 93.4026ZM167.018 89.3651C168.53 88.3694 170.397 87.8466 172.668 87.8466V85.8466C170.081 85.8466 167.815 86.4459 165.918 87.6946L167.018 89.3651ZM172.668 87.8466C174.791 87.8466 176.592 88.3096 178.106 89.2L179.12 87.4761C177.253 86.3779 175.09 85.8466 172.668 85.8466V87.8466ZM178.106 89.2C179.622 90.0919 180.807 91.3659 181.663 93.0521L183.446 92.1467C182.427 90.1398 180.984 88.5729 179.12 87.4761L178.106 89.2ZM181.664 93.0549C182.514 94.717 182.961 96.7411 182.961 99.1619H184.961C184.961 96.4976 184.469 94.1467 183.445 92.144L181.664 93.0549ZM182.961 99.1619V120H184.961V99.1619H182.961ZM183.961 119H174.884V121H183.961V119ZM175.884 120V100.781H173.884V120H175.884ZM175.884 100.788C175.899 98.6128 175.342 96.776 174.084 95.4151L172.615 96.7724C173.432 97.6558 173.897 98.9441 173.884 100.774L175.884 100.788ZM174.088 95.4197C172.827 94.0378 171.111 93.3892 169.067 93.3892V95.3892C170.66 95.3892 171.798 95.877 172.611 96.7678L174.088 95.4197ZM169.067 93.3892C167.698 93.3892 166.446 93.6851 165.339 94.3053L166.317 96.0498C167.086 95.6189 167.993 95.3892 169.067 95.3892V93.3892ZM165.334 94.3085C164.231 94.936 163.376 95.8501 162.768 97.0166L164.542 97.9408C164.985 97.0903 165.579 96.4703 166.323 96.0466L165.334 94.3085ZM162.766 97.0213C162.167 98.1851 161.882 99.5467 161.867 101.069L163.867 101.09C163.88 99.7999 164.12 98.7609 164.544 97.936L162.766 97.0213ZM197.336 118.594L196.84 119.462L196.846 119.466L197.336 118.594ZM191.754 112.756L190.865 113.215L190.866 113.217L191.754 112.756ZM191.754 94.9219L190.864 94.4648L191.754 94.9219ZM197.272 88.9773L196.761 88.118L196.758 88.1193L197.272 88.9773ZM211.697 87.8906L211.346 88.8273L211.355 88.8304L211.697 87.8906ZM216.597 90.9801L215.894 91.6908L215.897 91.6944L216.597 90.9801ZM219.879 96.179L218.942 96.5294L218.943 96.5315L219.879 96.179ZM221.05 105.959V106.959H222.05V105.959H221.05ZM193.415 105.959H192.415V106.959H193.415V105.959ZM193.415 100.334V99.3338H192.415V100.334H193.415ZM212.506 100.334V101.334H213.506V100.334H212.506ZM211.654 96.8608L210.783 97.3516L211.654 96.8608ZM209.289 94.4957L208.784 95.3586L208.791 95.3629L208.798 95.367L209.289 94.4957ZM202.151 94.581L202.662 95.4405L202.666 95.4385L202.151 94.581ZM199.68 97.1165L200.549 97.6101L200.552 97.6051L199.68 97.1165ZM198.763 100.632L197.763 100.621V100.632H198.763ZM199.658 110.178L198.766 110.629L198.77 110.638L199.658 110.178ZM208.948 113.438L208.627 112.49L208.948 113.438ZM211.1 112.159L210.41 111.435L211.1 112.159ZM212.464 110.071L212.53 109.073L211.791 109.024L211.529 109.716L212.464 110.071ZM220.859 110.625L221.837 110.832L222.076 109.703L220.925 109.627L220.859 110.625ZM218.238 115.909L217.486 115.25L217.486 115.25L218.238 115.909ZM213.167 119.403L213.538 120.332L213.542 120.331L213.167 119.403ZM206.029 119.639C202.798 119.639 200.077 118.986 197.825 117.722L196.846 119.466C199.453 120.929 202.527 121.639 206.029 121.639V119.639ZM197.832 117.725C195.587 116.445 193.861 114.642 192.641 112.294L190.866 113.217C192.26 115.898 194.255 117.987 196.84 119.462L197.832 117.725ZM192.642 112.297C191.422 109.937 190.793 107.111 190.793 103.786H188.793C188.793 107.363 189.471 110.517 190.865 113.215L192.642 112.297ZM190.793 103.786C190.793 100.55 191.421 97.7571 192.643 95.379L190.864 94.4648C189.473 97.1719 188.793 100.288 188.793 103.786H190.793ZM192.643 95.379C193.867 92.9965 195.579 91.1564 197.786 89.8352L196.758 88.1193C194.22 89.6391 192.253 91.762 190.864 94.4648L192.643 95.379ZM197.784 89.8366C199.992 88.5218 202.608 87.8466 205.667 87.8466V85.8466C202.305 85.8466 199.324 86.5919 196.761 88.118L197.784 89.8366ZM205.667 87.8466C207.717 87.8466 209.607 88.1766 211.346 88.8272L212.047 86.954C210.065 86.2126 207.935 85.8466 205.667 85.8466V87.8466ZM211.355 88.8304C213.097 89.4638 214.606 90.4165 215.894 91.6908L217.301 90.2694C215.804 88.788 214.047 87.681 212.038 86.9508L211.355 88.8304ZM215.897 91.6944C217.186 92.957 218.205 94.5603 218.942 96.5294L220.815 95.8286C219.989 93.6215 218.821 91.7589 217.297 90.2658L215.897 91.6944ZM218.943 96.5315C219.672 98.4679 220.05 100.773 220.05 103.466H222.05C222.05 100.591 221.647 98.0377 220.814 95.8264L218.943 96.5315ZM220.05 103.466V105.959H222.05V103.466H220.05ZM221.05 104.959H193.415V106.959H221.05V104.959ZM194.415 105.959V100.334H192.415V105.959H194.415ZM193.415 101.334H212.506V99.3338H193.415V101.334ZM213.506 100.334C213.506 98.8776 213.188 97.5468 212.525 96.3699L210.783 97.3516C211.256 98.1918 211.506 99.1764 211.506 100.334H213.506ZM212.525 96.3699C211.868 95.2023 210.948 94.2823 209.78 93.6245L208.798 95.367C209.648 95.8455 210.304 96.5023 210.783 97.3516L212.525 96.3699ZM209.794 93.6329C208.626 92.9482 207.288 92.6222 205.816 92.6222V94.6222C206.986 94.6222 207.964 94.8785 208.784 95.3586L209.794 93.6329ZM205.816 92.6222C204.277 92.6222 202.874 92.9811 201.637 93.7235L202.666 95.4385C203.559 94.9024 204.599 94.6222 205.816 94.6222V92.6222ZM201.64 93.7214C200.438 94.436 199.49 95.409 198.807 96.6279L200.552 97.6051C201.063 96.6932 201.762 95.9759 202.662 95.4405L201.64 93.7214ZM198.81 96.6229C198.124 97.8315 197.779 99.1713 197.764 100.621L199.763 100.643C199.776 99.5076 200.042 98.5038 200.549 97.6101L198.81 96.6229ZM197.763 100.632V105.98H199.763V100.632H197.763ZM197.763 105.98C197.763 107.721 198.084 109.282 198.766 110.629L200.551 109.726C200.039 108.715 199.763 107.477 199.763 105.98H197.763ZM198.77 110.638C199.466 111.979 200.457 113.033 201.737 113.771L202.736 112.039C201.8 111.499 201.073 110.734 200.546 109.718L198.77 110.638ZM201.737 113.771C203.023 114.513 204.516 114.864 206.178 114.864V112.864C204.801 112.864 203.666 112.575 202.736 112.039L201.737 113.771ZM206.178 114.864C207.281 114.864 208.314 114.708 209.269 114.385L208.627 112.49C207.906 112.735 207.093 112.864 206.178 112.864V114.864ZM209.269 114.385C210.234 114.057 211.08 113.559 211.79 112.883L210.41 111.435C209.927 111.896 209.338 112.249 208.627 112.49L209.269 114.385ZM211.79 112.883C212.502 112.205 213.037 111.38 213.399 110.426L211.529 109.716C211.266 110.41 210.891 110.977 210.41 111.435L211.79 112.883ZM212.398 111.069L220.793 111.623L220.925 109.627L212.53 109.073L212.398 111.069ZM219.88 110.418C219.489 112.273 218.691 113.877 217.486 115.25L218.99 116.569C220.427 114.93 221.377 113.012 221.837 110.832L219.88 110.418ZM217.486 115.25C216.295 116.61 214.74 117.689 212.792 118.476L213.542 120.331C215.742 119.441 217.568 118.192 218.99 116.568L217.486 115.25ZM212.796 118.475C210.877 119.243 208.628 119.639 206.029 119.639V121.639C208.828 121.639 211.338 121.212 213.538 120.332L212.796 118.475ZM236.05 76.3636H237.05V75.3636H236.05V76.3636ZM236.05 120V121H237.05V120H236.05ZM226.974 120H225.974V121H226.974V120ZM226.974 76.3636V75.3636H225.974V76.3636H226.974ZM235.05 76.3636V120H237.05V76.3636H235.05ZM236.05 119H226.974V121H236.05V119ZM227.974 120V76.3636H225.974V120H227.974ZM226.974 77.3636H236.05V75.3636H226.974V77.3636ZM270.551 96.6051L270.613 97.6032L271.683 97.5374L271.543 96.4742L270.551 96.6051ZM262.242 97.1165L261.261 97.3126L261.432 98.1682L262.303 98.1146L262.242 97.1165ZM261.326 95.1989L260.547 95.8259L260.554 95.8352L261.326 95.1989ZM259.472 93.8139L259.045 94.7184L259.056 94.7232L259.066 94.7277L259.472 93.8139ZM253.208 94.1761L253.724 95.0326L253.733 95.0269L253.208 94.1761ZM252.696 98.5014L252.043 99.2582V99.2582L252.696 98.5014ZM255.914 99.8011L255.704 100.779L255.716 100.781L255.914 99.8011ZM261.837 100.994L262.038 100.015L262.034 100.014L261.837 100.994ZM268.953 104.148L268.274 104.881L268.953 104.148ZM269.401 115.504L268.613 114.889L268.609 114.893L269.401 115.504ZM264.245 119.297L264.625 120.222L264.628 120.22L264.245 119.297ZM246.368 117.933L245.789 118.748L245.794 118.752L246.368 117.933ZM241.873 110.518L241.82 109.52L240.73 109.577L240.882 110.658L241.873 110.518ZM250.8 110.05L251.78 109.85L251.607 109.006L250.748 109.051L250.8 110.05ZM252.76 113.075L252.203 113.906L252.211 113.911L252.76 113.075ZM260.58 113.182L261.114 114.027L261.118 114.025L260.58 113.182ZM262.071 110.774L263.071 110.789L263.072 110.773L263.071 110.757L262.071 110.774ZM261.027 108.75L260.407 109.534L260.417 109.542L261.027 108.75ZM257.874 107.514L258.07 106.534L258.069 106.533L257.874 107.514ZM252.206 106.385L252.01 107.366L252.011 107.366L252.206 106.385ZM245.069 103.061L244.355 103.762L244.358 103.765L245.069 103.061ZM244.451 91.598L243.653 90.9944L243.65 90.9992L244.451 91.598ZM249.287 88.0824L248.92 87.1522L248.918 87.153L249.287 88.0824ZM266.375 89.4673L265.782 90.2725L265.785 90.2742L266.375 89.4673ZM270.49 95.607L262.18 96.1184L262.303 98.1146L270.613 97.6032L270.49 95.607ZM263.222 96.9204C263.047 96.0455 262.669 95.2557 262.097 94.5625L260.554 95.8352C260.92 96.2784 261.152 96.767 261.261 97.3126L263.222 96.9204ZM262.105 94.5719C261.525 93.8511 260.772 93.2976 259.878 92.9001L259.066 94.7277C259.706 95.0121 260.189 95.3819 260.547 95.8259L262.105 94.5719ZM259.899 92.9095C258.982 92.4772 257.927 92.2812 256.766 92.2812V94.2812C257.707 94.2812 258.456 94.4405 259.045 94.7184L259.899 92.9095ZM256.766 92.2812C255.218 92.2812 253.84 92.6103 252.682 93.3253L253.733 95.0269C254.507 94.5487 255.501 94.2812 256.766 94.2812V92.2812ZM252.691 93.3198C251.479 94.0507 250.759 95.1308 250.759 96.5199H252.759C252.759 95.9487 253.005 95.4663 253.724 95.0325L252.691 93.3198ZM250.759 96.5199C250.759 97.6101 251.212 98.5408 252.043 99.2582L253.35 97.7446C252.931 97.3824 252.759 96.9922 252.759 96.5199H250.759ZM252.043 99.2582C252.864 99.9671 254.141 100.443 255.704 100.779L256.124 98.8235C254.647 98.506 253.779 98.1153 253.35 97.7446L252.043 99.2582ZM255.716 100.781L261.64 101.975L262.034 100.014L256.111 98.8208L255.716 100.781ZM261.636 101.974C264.725 102.608 266.898 103.605 268.274 104.881L269.633 103.414C267.884 101.792 265.312 100.687 262.038 100.015L261.636 101.974ZM268.274 104.881C269.609 106.119 270.297 107.745 270.297 109.858H272.297C272.297 107.255 271.423 105.074 269.633 103.414L268.274 104.881ZM270.297 109.858C270.297 111.79 269.733 113.453 268.613 114.889L270.189 116.12C271.597 114.316 272.297 112.215 272.297 109.858H270.297ZM268.609 114.893C267.482 116.354 265.913 117.521 263.861 118.373L264.628 120.22C266.951 119.255 268.82 117.893 270.193 116.115L268.609 114.893ZM263.864 118.372C261.834 119.208 259.46 119.639 256.723 119.639V121.639C259.668 121.639 262.309 121.175 264.625 120.222L263.864 118.372ZM256.723 119.639C252.521 119.639 249.292 118.763 246.943 117.115L245.794 118.752C248.586 120.711 252.261 121.639 256.723 121.639V119.639ZM246.948 117.118C244.616 115.46 243.265 113.234 242.863 110.379L240.882 110.658C241.361 114.053 243.007 116.77 245.789 118.748L246.948 117.118ZM241.925 111.517L250.853 111.048L250.748 109.051L241.82 109.52L241.925 111.517ZM249.82 110.25C250.138 111.806 250.93 113.051 252.203 113.906L253.318 112.245C252.517 111.708 252.002 110.936 251.78 109.85L249.82 110.25ZM252.211 113.911C253.454 114.728 254.989 115.098 256.745 115.098V113.098C255.262 113.098 254.141 112.786 253.31 112.24L252.211 113.911ZM256.745 115.098C258.454 115.098 259.937 114.771 261.114 114.027L260.045 112.337C259.291 112.814 258.218 113.098 256.745 113.098V115.098ZM261.118 114.025C262.32 113.258 263.051 112.172 263.071 110.789L261.071 110.76C261.063 111.337 260.8 111.856 260.042 112.339L261.118 114.025ZM263.071 110.757C263.052 109.614 262.548 108.66 261.638 107.958L260.417 109.542C260.87 109.892 261.063 110.287 261.072 110.791L263.071 110.757ZM261.648 107.966C260.786 107.283 259.555 106.831 258.07 106.534L257.678 108.495C259.034 108.766 259.905 109.137 260.407 109.534L261.648 107.966ZM258.069 106.533L252.402 105.404L252.011 107.366L257.679 108.495L258.069 106.533ZM252.402 105.404C249.315 104.787 247.15 103.741 245.779 102.357L244.358 103.765C246.112 105.535 248.706 106.705 252.01 107.366L252.402 105.404ZM245.782 102.36C244.438 100.991 243.746 99.2426 243.746 97.0312H241.746C241.746 99.7062 242.603 101.977 244.355 103.762L245.782 102.36ZM243.746 97.0312C243.746 95.1203 244.258 93.5252 245.252 92.1968L243.65 90.9992C242.37 92.7106 241.746 94.7376 241.746 97.0312H243.746ZM245.248 92.2016C246.271 90.8506 247.723 89.7798 249.656 89.0117L248.918 87.153C246.704 88.0327 244.932 89.3056 243.653 90.9944L245.248 92.2016ZM249.654 89.0126C251.601 88.2447 253.914 87.8466 256.617 87.8466V85.8466C253.723 85.8466 251.15 86.2724 248.92 87.1522L249.654 89.0126ZM256.617 87.8466C260.621 87.8466 263.639 88.6939 265.782 90.2725L266.968 88.6621C264.367 86.7465 260.88 85.8466 256.617 85.8466V87.8466ZM265.785 90.2742C267.944 91.8553 269.197 93.987 269.56 96.7361L271.543 96.4742C271.111 93.2005 269.579 90.5737 266.966 88.6605L265.785 90.2742Z" fill="#662002"/>
</svg>
