<svg width="24" height="23" viewBox="0 0 24 23" fill="none" xmlns="http://www.w3.org/2000/svg">
<g clip-path="url(#clip0_468_2946)">
<path fill-rule="evenodd" clip-rule="evenodd" d="M23.8685 11.3967C23.8685 17.6905 18.7153 22.7934 12.3593 22.7934C6.00336 22.7934 0.850113 17.6905 0.850113 11.3967C0.850113 5.10286 6.00336 0 12.3593 0C18.7153 0 23.8685 5.10286 23.8685 11.3967ZM12.7717 8.4136C11.6525 8.87421 9.41487 9.82868 6.05994 11.2761C5.51517 11.4907 5.22936 11.7006 5.20347 11.9057C5.15935 12.2533 5.59862 12.3901 6.19518 12.5753C6.2767 12.6009 6.3611 12.6266 6.44742 12.6551C7.03535 12.8441 7.82565 13.0653 8.23614 13.0739C8.60923 13.0815 9.02548 12.9295 9.48489 12.618C12.6192 10.522 14.2372 9.46304 14.3389 9.44025C14.4108 9.4241 14.5106 9.40321 14.5777 9.46304C14.6448 9.52192 14.6381 9.63399 14.6314 9.66438C14.5873 9.84768 12.8667 11.4328 11.9747 12.2533C11.6966 12.5088 11.5 12.6902 11.4597 12.732C11.3695 12.8241 11.2774 12.9124 11.1892 12.997C10.6425 13.5174 10.2339 13.9087 11.2122 14.5469C11.6822 14.8537 12.0582 15.1072 12.4332 15.3599C12.8427 15.6362 13.2513 15.9117 13.7807 16.2555C13.915 16.3428 14.0435 16.4331 14.1691 16.5214C14.6458 16.8585 15.0745 17.1605 15.6039 17.1131C15.9109 17.0846 16.2293 16.7987 16.3904 15.9449C16.7712 13.9258 17.5212 9.55326 17.6948 7.75069C17.7053 7.60103 17.6989 7.45066 17.6756 7.30242C17.6616 7.18269 17.6028 7.07252 17.5106 6.99376C17.3735 6.88264 17.1606 6.8589 17.0647 6.8608C16.6321 6.8684 15.9684 7.09728 12.7717 8.4136Z" fill="white"/>
</g>
<defs>
<clipPath id="clip0_468_2946">
<rect width="23.0184" height="22.7934" fill="white" transform="translate(0.850113)"/>
</clipPath>
</defs>
</svg>
