<svg width="21" height="24" viewBox="0 0 21 24" fill="none" xmlns="http://www.w3.org/2000/svg">
<g clip-path="url(#clip0_468_2891)">
<path d="M20.6774 9.78833C18.6565 9.79324 16.6851 9.153 15.0417 7.95806V16.292C15.0412 17.8355 14.5768 19.3421 13.7106 20.6102C12.8444 21.8784 11.6177 22.8477 10.1945 23.3885C8.77138 23.9294 7.21961 24.016 5.74671 23.6367C4.27381 23.2575 2.94999 22.4305 1.95226 21.2664C0.954529 20.1022 0.330445 18.6564 0.163459 17.1222C-0.00352806 15.588 0.294541 14.0386 1.01781 12.6812C1.74108 11.3237 2.85508 10.2229 4.21084 9.52597C5.5666 8.82903 7.09951 8.56915 8.60459 8.7811V12.9728C7.91586 12.7527 7.17629 12.7593 6.49149 12.9917C5.8067 13.2241 5.21169 13.6703 4.79145 14.2667C4.37121 14.8631 4.14722 15.5791 4.15147 16.3125C4.15573 17.046 4.388 17.7592 4.81513 18.3506C5.24226 18.9419 5.8424 19.381 6.52984 19.6051C7.21728 19.8293 7.95688 19.8271 8.64301 19.5988C9.32914 19.3705 9.92671 18.9278 10.3504 18.3339C10.7741 17.7401 11.0022 17.0254 11.0022 16.292V0H15.0417C15.0389 0.346534 15.0675 0.692596 15.1271 1.03381C15.2675 1.79552 15.5594 2.52013 15.9849 3.16333C16.4104 3.80652 16.9606 4.35478 17.6018 4.77456C18.5141 5.38733 19.5837 5.71394 20.6774 5.71371V9.78833Z" fill="white"/>
</g>
<defs>
<clipPath id="clip0_468_2891">
<rect width="20.5651" height="23.8751" fill="white" transform="translate(0.112885)"/>
</clipPath>
</defs>
</svg>
