<svg width="29" height="27" viewBox="0 0 29 27" fill="none" xmlns="http://www.w3.org/2000/svg">
<path d="M10.3127 11.565C9.75045 11.565 9.20086 11.7302 8.73354 12.0398C8.26622 12.3493 7.90218 12.7892 7.68755 13.3038C7.47291 13.8184 7.41733 14.3845 7.52785 14.9303C7.63836 15.4762 7.91 15.9773 8.30836 16.3702C8.70672 16.7631 9.21386 17.0301 9.76557 17.1373C10.3173 17.2446 10.8887 17.1873 11.4075 16.9727C11.9263 16.7581 12.3691 16.3958 12.6798 15.9318C12.9905 15.4679 13.1552 14.923 13.1529 14.3663C13.1499 13.6223 12.8494 12.9098 12.317 12.3848C11.7847 11.8598 11.064 11.565 10.3127 11.565ZM10.3127 15.84C10.1071 15.8578 9.89996 15.8331 9.70451 15.7675C9.50906 15.7018 9.32954 15.5966 9.17736 15.4585C9.02518 15.3204 8.90367 15.1525 8.82053 14.9655C8.7374 14.7784 8.69447 14.5763 8.69447 14.3719C8.69447 14.1675 8.7374 13.9654 8.82053 13.7783C8.90367 13.5912 9.02518 13.4233 9.17736 13.2853C9.32954 13.1472 9.50906 13.042 9.70451 12.9763C9.89996 12.9106 10.1071 12.8859 10.3127 12.9038C10.5183 12.8859 10.7254 12.9106 10.9208 12.9763C11.1163 13.042 11.2958 13.1472 11.448 13.2853C11.6002 13.4233 11.7217 13.5912 11.8048 13.7783C11.888 13.9654 11.9309 14.1675 11.9309 14.3719C11.9309 14.5763 11.888 14.7784 11.8048 14.9655C11.7217 15.1525 11.6002 15.3204 11.448 15.4585C11.2958 15.5966 11.1163 15.7018 10.9208 15.7675C10.7254 15.8331 10.5183 15.8578 10.3127 15.84ZM18.6972 11.565C18.1349 11.565 17.5853 11.7302 17.118 12.0398C16.6507 12.3493 16.2867 12.7892 16.072 13.3038C15.8574 13.8184 15.8018 14.3845 15.9123 14.9303C16.0228 15.4762 16.2945 15.9773 16.6928 16.3702C17.0912 16.7631 17.5983 17.0301 18.15 17.1373C18.7017 17.2446 19.2732 17.1873 19.792 16.9727C20.3108 16.7581 20.7536 16.3958 21.0643 15.9318C21.375 15.4679 21.5397 14.923 21.5374 14.3663C21.5344 13.6223 21.2338 12.9098 20.7015 12.3848C20.1692 11.8598 19.4485 11.565 18.6972 11.565ZM20.1855 14.3663C20.1877 14.6582 20.1023 14.9442 19.9402 15.1881C19.778 15.4319 19.5464 15.6225 19.2746 15.7358C19.0029 15.8491 18.7033 15.8799 18.4138 15.8243C18.1244 15.7687 17.8581 15.6292 17.6488 15.4236C17.4396 15.2179 17.2967 14.9554 17.2383 14.6692C17.18 14.383 17.2088 14.0861 17.3211 13.8162C17.4334 13.5462 17.6241 13.3154 17.8691 13.1529C18.1141 12.9905 18.4023 12.9038 18.6972 12.9038C19.0899 12.9037 19.4668 13.0575 19.7455 13.3314C20.0243 13.6054 20.1825 13.9773 20.1855 14.3663Z" fill="white"/>
<path d="M14.5049 2.25C12.2579 2.25 10.0614 2.9098 8.19304 4.14597C6.32472 5.38213 4.86855 7.13914 4.00865 9.19481C3.14876 11.2505 2.92377 13.5125 3.36214 15.6948C3.80051 17.8771 4.88255 19.8816 6.47143 21.455C8.0603 23.0283 10.0846 24.0998 12.2885 24.5338C14.4923 24.9679 16.7766 24.7451 18.8526 23.8936C20.9286 23.0422 22.7029 21.6002 23.9513 19.7502C25.1997 17.9001 25.866 15.725 25.866 13.5C25.866 12.0226 25.5721 10.5597 25.0012 9.19481C24.4302 7.8299 23.5934 6.58971 22.5384 5.54505C21.4834 4.50039 20.231 3.67172 18.8526 3.10636C17.4742 2.54099 15.9969 2.25 14.5049 2.25ZM22.8894 14.3663C22.8905 15.1746 22.6533 15.9657 22.2069 16.6424C21.7604 17.3192 21.1242 17.8521 20.3762 18.1759C19.6282 18.4996 18.801 18.6001 17.9962 18.4649C17.1914 18.3297 16.4439 17.9648 15.8455 17.415L14.5049 18.8663L13.1643 17.415C12.7585 17.7843 12.2832 18.0709 11.7655 18.2584C11.2479 18.4458 10.698 18.5305 10.1473 18.5075C9.59661 18.4845 9.05588 18.3543 8.55598 18.1244C8.05609 17.8945 7.60682 17.5693 7.23383 17.1675C6.86084 16.7657 6.57143 16.295 6.38213 15.7824C6.19284 15.2698 6.10735 14.7253 6.13056 14.18C6.15377 13.6347 6.28522 13.0992 6.5174 12.6042C6.74959 12.1092 7.07796 11.6643 7.48377 11.295L6.12044 9.8325H9.16521C10.7395 8.76546 12.6028 8.1945 14.5106 8.1945C16.4184 8.1945 18.2816 8.76546 19.856 9.8325H22.8894L21.5261 11.3063C21.9541 11.6957 22.2962 12.1685 22.5308 12.6951C22.7654 13.2217 22.8875 13.7907 22.8894 14.3663Z" fill="white"/>
<path d="M17.6519 10.1813C16.6549 9.76911 15.5853 9.55688 14.5049 9.55688C13.4245 9.55688 12.3549 9.76911 11.3579 10.1813C12.239 10.4724 13.0108 11.0201 13.5723 11.7528C14.1338 12.4854 14.4589 13.3689 14.5049 14.2875C14.554 13.3697 14.8802 12.4877 15.4413 11.7556C16.0024 11.0235 16.7725 10.4751 17.6519 10.1813Z" fill="white"/>
</svg>
