<svg width="26" height="20" viewBox="0 0 26 20" fill="none" xmlns="http://www.w3.org/2000/svg">
<g clip-path="url(#clip0_468_2883)">
<path d="M25.2653 2.34948C24.5681 3.36087 23.7127 4.22304 22.6991 4.93598C22.7091 5.12719 22.7141 5.3433 22.7141 5.58432C22.7141 6.92346 22.5139 8.26423 22.1135 9.60661C21.7131 10.949 21.1015 12.2339 20.2786 13.4613C19.4558 14.6888 18.4756 15.7762 17.3382 16.7235C16.2007 17.6709 14.8334 18.4262 13.2363 18.9896C11.6392 19.553 9.9275 19.8347 8.10126 19.8347C5.25111 19.8347 2.62641 19.0843 0.227142 17.5836C0.652983 17.6298 1.0614 17.6529 1.45239 17.6529C3.83346 17.6529 5.96014 16.9377 7.83242 15.5073C6.72223 15.4874 5.72797 15.1541 4.84965 14.5074C3.97132 13.8607 3.36688 13.0344 3.03632 12.0283C3.36306 12.089 3.68554 12.1194 4.00376 12.1194C4.46182 12.1194 4.91254 12.0611 5.35592 11.9446C4.17115 11.7132 3.18827 11.1377 2.4073 10.2182C1.62636 9.29865 1.23589 8.23734 1.23589 7.03425V6.97225C1.96311 7.36492 2.7388 7.57379 3.56297 7.59887C2.86112 7.14256 2.30466 6.54753 1.89358 5.81376C1.48248 5.08 1.27693 4.28594 1.27693 3.43158C1.27693 2.53052 1.50846 1.69146 1.97152 0.914399C3.25995 2.45631 4.82114 3.68865 6.65511 4.61142C8.4891 5.53421 10.4566 6.0467 12.5577 6.14889C12.4681 5.78469 12.4232 5.40462 12.423 5.00869C12.423 3.62627 12.9247 2.44588 13.928 1.46753C14.9313 0.489176 16.1417 0 17.5593 0C19.0434 0 20.2935 0.527014 21.3096 1.58104C22.4705 1.35679 23.5575 0.951179 24.5706 0.364204C24.1803 1.56209 23.4282 2.48617 22.3143 3.13646C23.3381 3.01782 24.3217 2.75549 25.2653 2.34948H25.2653Z" fill="white"/>
</g>
<defs>
<clipPath id="clip0_468_2883">
<rect width="25.0381" height="19.8347" fill="white" transform="translate(0.227142)"/>
</clipPath>
</defs>
</svg>
