<svg width="22" height="22" viewBox="0 0 22 22" fill="none" xmlns="http://www.w3.org/2000/svg">
<g clip-path="url(#clip0_468_899)">
<path d="M11 15.4688C12.8985 15.4688 14.4375 13.9297 14.4375 12.0312C14.4375 10.1328 12.8985 8.59375 11 8.59375C9.10152 8.59375 7.5625 10.1328 7.5625 12.0312C7.5625 13.9297 9.10152 15.4688 11 15.4688Z" stroke="#0FB36C" stroke-width="1.8" stroke-linecap="round" stroke-linejoin="round"/>
<path d="M16.8438 9.96876C17.6445 9.96742 18.4344 10.1532 19.1506 10.5113C19.8668 10.8694 20.4894 11.3899 20.9688 12.0313" stroke="#0FB36C" stroke-width="1.8" stroke-linecap="round" stroke-linejoin="round"/>
<path d="M1.03125 12.0313C1.51061 11.3899 2.13321 10.8694 2.84939 10.5113C3.56558 10.1532 4.35553 9.96742 5.15625 9.96876" stroke="#0FB36C" stroke-width="1.8" stroke-linecap="round" stroke-linejoin="round"/>
<path d="M6.04993 18.5625C6.50267 17.6353 7.20672 16.8539 8.08187 16.3073C8.95703 15.7607 9.96811 15.4709 10.9999 15.4709C12.0317 15.4709 13.0428 15.7607 13.918 16.3073C14.7931 16.8539 15.4972 17.6353 15.9499 18.5625" stroke="#0FB36C" stroke-width="1.8" stroke-linecap="round" stroke-linejoin="round"/>
<path d="M5.15623 9.96875C4.63429 9.96928 4.12296 9.82126 3.68202 9.54198C3.24107 9.26271 2.88871 8.86371 2.6661 8.39161C2.44349 7.91951 2.35983 7.39381 2.42489 6.87594C2.48996 6.35806 2.70106 5.86939 3.03354 5.46704C3.36601 5.06468 3.80613 4.76525 4.30245 4.60373C4.79878 4.44222 5.33083 4.42528 5.83642 4.55491C6.34202 4.68454 6.80028 4.95538 7.15767 5.33578C7.51506 5.71618 7.75681 6.19043 7.85467 6.70312" stroke="#0FB36C" stroke-width="1.8" stroke-linecap="round" stroke-linejoin="round"/>
<path d="M14.1454 6.70312C14.2433 6.19043 14.485 5.71618 14.8424 5.33578C15.1998 4.95538 15.658 4.68454 16.1636 4.55491C16.6692 4.42528 17.2013 4.44222 17.6976 4.60373C18.1939 4.76525 18.634 5.06468 18.9665 5.46704C19.299 5.86939 19.5101 6.35806 19.5752 6.87594C19.6402 7.39381 19.5566 7.91951 19.334 8.39161C19.1114 8.86371 18.759 9.26271 18.318 9.54198C17.8771 9.82126 17.3658 9.96928 16.8438 9.96875" stroke="#0FB36C" stroke-width="1.8" stroke-linecap="round" stroke-linejoin="round"/>
</g>
<defs>
<clipPath id="clip0_468_899">
<rect width="22" height="22" fill="white"/>
</clipPath>
</defs>
</svg>
