<svg width="27" height="27" viewBox="0 0 27 27" fill="none" xmlns="http://www.w3.org/2000/svg">
<g clip-path="url(#clip0_468_2937)">
<path d="M13.1658 3.34549H13.3106C14.6484 3.35051 21.4269 3.40072 23.2545 3.90613C23.8071 4.06038 24.3105 4.36104 24.7146 4.77806C25.1188 5.19509 25.4094 5.71387 25.5574 6.28257C25.7218 6.91852 25.8373 7.76032 25.9155 8.62889L25.9317 8.80294L25.9675 9.23806L25.9806 9.41211C26.0863 10.9417 26.0994 12.3743 26.101 12.6873V12.8128C26.0994 13.1374 26.0847 14.6671 25.9675 16.2603L25.9545 16.436L25.9399 16.6101C25.8585 17.5673 25.7381 18.5179 25.5574 19.2175C25.4098 19.7864 25.1194 20.3054 24.7152 20.7225C24.311 21.1396 23.8073 21.4401 23.2545 21.5939C21.3667 22.116 14.1911 22.1529 13.1967 22.1545H12.9656C12.4627 22.1545 10.3828 22.1445 8.20198 22.0675L7.92531 22.0575L7.78372 22.0508L7.50542 22.0391L7.22712 22.0273C5.42062 21.9453 3.70037 21.8131 2.90779 21.5922C2.35525 21.4386 1.85166 21.1383 1.44749 20.7215C1.04332 20.3048 0.75276 19.7861 0.604908 19.2175C0.424258 18.5196 0.303825 17.5673 0.222451 16.6101L0.209431 16.4343L0.196411 16.2603C0.116091 15.1263 0.0715832 13.9899 0.0629578 12.8529L0.0629578 12.6471C0.0662127 12.2873 0.0792326 11.0438 0.167116 9.67151L0.178509 9.49914L0.183391 9.41211L0.196411 9.23806L0.232216 8.80294L0.24849 8.62889C0.326609 7.76032 0.44216 6.91685 0.606536 6.28257C0.754138 5.71364 1.04459 5.19461 1.44878 4.77752C1.85296 4.36042 2.35668 4.05992 2.90942 3.90613C3.702 3.68857 5.42225 3.55468 7.22875 3.47101L7.50542 3.45929L7.78535 3.44925L7.92531 3.44423L8.20361 3.43251C9.75249 3.38126 11.302 3.35281 12.8517 3.34716H13.1658V3.34549ZM10.4788 8.71759V16.7808L17.2443 12.7508L10.4788 8.71759Z" fill="white"/>
</g>
<defs>
<clipPath id="clip0_468_2937">
<rect width="26.0397" height="26.7768" fill="white" transform="translate(0.0629578 6.10352e-05)"/>
</clipPath>
</defs>
</svg>
